<svg width="498" height="159" viewBox="0 0 498 159" fill="none" xmlns="http://www.w3.org/2000/svg">
<ellipse cx="62.0833" cy="51.5112" rx="52.0833" ry="51.5112" fill="#A3D9D3"/>
<path d="M41.6797 129.516V130.742H35.5234V129.516H41.6797ZM35.7578 124.625V136H34.25V124.625H35.7578ZM42.9922 124.625V136H41.4922V124.625H42.9922ZM45.0703 131.867V131.688C45.0703 131.078 45.1589 130.513 45.3359 129.992C45.513 129.466 45.7682 129.01 46.1016 128.625C46.4349 128.234 46.8385 127.932 47.3125 127.719C47.7865 127.5 48.3177 127.391 48.9062 127.391C49.5 127.391 50.0339 127.5 50.5078 127.719C50.987 127.932 51.3932 128.234 51.7266 128.625C52.0651 129.01 52.3229 129.466 52.5 129.992C52.6771 130.513 52.7656 131.078 52.7656 131.688V131.867C52.7656 132.477 52.6771 133.042 52.5 133.562C52.3229 134.083 52.0651 134.539 51.7266 134.93C51.3932 135.315 50.9896 135.617 50.5156 135.836C50.0469 136.049 49.5156 136.156 48.9219 136.156C48.3281 136.156 47.7943 136.049 47.3203 135.836C46.8464 135.617 46.4401 135.315 46.1016 134.93C45.7682 134.539 45.513 134.083 45.3359 133.562C45.1589 133.042 45.0703 132.477 45.0703 131.867ZM46.5156 131.688V131.867C46.5156 132.289 46.5651 132.688 46.6641 133.062C46.763 133.432 46.9115 133.76 47.1094 134.047C47.3125 134.333 47.5651 134.56 47.8672 134.727C48.1693 134.888 48.5208 134.969 48.9219 134.969C49.3177 134.969 49.6641 134.888 49.9609 134.727C50.263 134.56 50.513 134.333 50.7109 134.047C50.9089 133.76 51.0573 133.432 51.1562 133.062C51.2604 132.688 51.3125 132.289 51.3125 131.867V131.688C51.3125 131.271 51.2604 130.878 51.1562 130.508C51.0573 130.133 50.9062 129.802 50.7031 129.516C50.5052 129.224 50.2552 128.995 49.9531 128.828C49.6562 128.661 49.3073 128.578 48.9062 128.578C48.5104 128.578 48.1615 128.661 47.8594 128.828C47.5625 128.995 47.3125 129.224 47.1094 129.516C46.9115 129.802 46.763 130.133 46.6641 130.508C46.5651 130.878 46.5156 131.271 46.5156 131.688ZM58.5469 132.281H55.7734L55.7578 131.125H58.0234C58.4714 131.125 58.8438 131.081 59.1406 130.992C59.4427 130.904 59.6693 130.771 59.8203 130.594C59.9714 130.417 60.0469 130.198 60.0469 129.938C60.0469 129.734 60.0026 129.557 59.9141 129.406C59.8307 129.25 59.7031 129.122 59.5312 129.023C59.3594 128.919 59.1458 128.844 58.8906 128.797C58.6406 128.745 58.3464 128.719 58.0078 128.719H56.1562V136H54.7109V127.547H58.0078C58.5443 127.547 59.026 127.594 59.4531 127.688C59.8854 127.781 60.2526 127.924 60.5547 128.117C60.862 128.305 61.0964 128.544 61.2578 128.836C61.4193 129.128 61.5 129.471 61.5 129.867C61.5 130.122 61.4479 130.365 61.3438 130.594C61.2396 130.823 61.0859 131.026 60.8828 131.203C60.6797 131.38 60.4297 131.526 60.1328 131.641C59.8359 131.75 59.4948 131.82 59.1094 131.852L58.5469 132.281ZM58.5469 136H55.25L55.9688 134.828H58.5469C58.9479 134.828 59.2812 134.779 59.5469 134.68C59.8125 134.576 60.0104 134.43 60.1406 134.242C60.276 134.049 60.3438 133.82 60.3438 133.555C60.3438 133.289 60.276 133.062 60.1406 132.875C60.0104 132.682 59.8125 132.536 59.5469 132.438C59.2812 132.333 58.9479 132.281 58.5469 132.281H56.3516L56.3672 131.125H59.1094L59.6328 131.562C60.0964 131.599 60.4896 131.714 60.8125 131.906C61.1354 132.099 61.3802 132.344 61.5469 132.641C61.7135 132.932 61.7969 133.25 61.7969 133.594C61.7969 133.99 61.7214 134.339 61.5703 134.641C61.4245 134.943 61.2109 135.195 60.9297 135.398C60.6484 135.596 60.3073 135.747 59.9062 135.852C59.5052 135.951 59.0521 136 58.5469 136ZM65.3047 127.547V136H63.8516V127.547H65.3047ZM63.7422 125.305C63.7422 125.07 63.8125 124.872 63.9531 124.711C64.099 124.549 64.3125 124.469 64.5938 124.469C64.8698 124.469 65.0807 124.549 65.2266 124.711C65.3776 124.872 65.4531 125.07 65.4531 125.305C65.4531 125.529 65.3776 125.721 65.2266 125.883C65.0807 126.039 64.8698 126.117 64.5938 126.117C64.3125 126.117 64.099 126.039 63.9531 125.883C63.8125 125.721 63.7422 125.529 63.7422 125.305ZM71.0703 127.547V136H69.6172V127.547H71.0703ZM73.9062 127.547V128.719H66.8359V127.547H73.9062ZM81.0625 131.211V132.383H76.5938V131.211H81.0625ZM76.8984 127.547V136H75.4531V127.547H76.8984ZM82.2344 127.547V136H80.7812V127.547H82.2344ZM88.8906 131.188V132.375H84.5625V131.188H88.8906ZM88.0312 134.969C88.375 134.969 88.6927 134.898 88.9844 134.758C89.276 134.617 89.5156 134.424 89.7031 134.18C89.8906 133.93 89.9974 133.646 90.0234 133.328H91.3906C91.3646 133.828 91.1953 134.294 90.8828 134.727C90.5755 135.154 90.1719 135.5 89.6719 135.766C89.1771 136.026 88.6302 136.156 88.0312 136.156C87.3958 136.156 86.8411 136.044 86.3672 135.82C85.8932 135.596 85.5 135.289 85.1875 134.898C84.8802 134.508 84.6484 134.06 84.4922 133.555C84.3411 133.044 84.2656 132.505 84.2656 131.938V131.609C84.2656 131.042 84.3411 130.505 84.4922 130C84.6484 129.49 84.8828 129.039 85.1953 128.648C85.5078 128.258 85.8984 127.951 86.3672 127.727C86.8411 127.503 87.3932 127.391 88.0234 127.391C88.6849 127.391 89.263 127.526 89.7578 127.797C90.2526 128.062 90.6406 128.427 90.9219 128.891C91.2083 129.349 91.3646 129.87 91.3906 130.453H90.0234C89.9974 130.104 89.8984 129.789 89.7266 129.508C89.5599 129.227 89.3307 129.003 89.0391 128.836C88.7526 128.664 88.4141 128.578 88.0234 128.578C87.5807 128.578 87.2083 128.667 86.9062 128.844C86.6094 129.016 86.3724 129.25 86.1953 129.547C86.0234 129.839 85.8984 130.164 85.8203 130.523C85.7474 130.878 85.7109 131.24 85.7109 131.609V131.938C85.7109 132.307 85.7474 132.672 85.8203 133.031C85.8984 133.391 86.0234 133.716 86.1953 134.008C86.3724 134.299 86.6094 134.534 86.9062 134.711C87.2083 134.883 87.5833 134.969 88.0312 134.969ZM17.8281 150.867V150.688C17.8281 150.078 17.9167 149.513 18.0938 148.992C18.2708 148.466 18.526 148.01 18.8594 147.625C19.1927 147.234 19.5964 146.932 20.0703 146.719C20.5443 146.5 21.0755 146.391 21.6641 146.391C22.2578 146.391 22.7917 146.5 23.2656 146.719C23.7448 146.932 24.151 147.234 24.4844 147.625C24.8229 148.01 25.0807 148.466 25.2578 148.992C25.4349 149.513 25.5234 150.078 25.5234 150.688V150.867C25.5234 151.477 25.4349 152.042 25.2578 152.562C25.0807 153.083 24.8229 153.539 24.4844 153.93C24.151 154.315 23.7474 154.617 23.2734 154.836C22.8047 155.049 22.2734 155.156 21.6797 155.156C21.0859 155.156 20.5521 155.049 20.0781 154.836C19.6042 154.617 19.1979 154.315 18.8594 153.93C18.526 153.539 18.2708 153.083 18.0938 152.562C17.9167 152.042 17.8281 151.477 17.8281 150.867ZM19.2734 150.688V150.867C19.2734 151.289 19.3229 151.688 19.4219 152.062C19.5208 152.432 19.6693 152.76 19.8672 153.047C20.0703 153.333 20.3229 153.56 20.625 153.727C20.9271 153.888 21.2786 153.969 21.6797 153.969C22.0755 153.969 22.4219 153.888 22.7188 153.727C23.0208 153.56 23.2708 153.333 23.4688 153.047C23.6667 152.76 23.8151 152.432 23.9141 152.062C24.0182 151.688 24.0703 151.289 24.0703 150.867V150.688C24.0703 150.271 24.0182 149.878 23.9141 149.508C23.8151 149.133 23.6641 148.802 23.4609 148.516C23.263 148.224 23.013 147.995 22.7109 147.828C22.4141 147.661 22.0651 147.578 21.6641 147.578C21.2682 147.578 20.9193 147.661 20.6172 147.828C20.3203 147.995 20.0703 148.224 19.8672 148.516C19.6693 148.802 19.5208 149.133 19.4219 149.508C19.3229 149.878 19.2734 150.271 19.2734 150.688ZM32.7578 142.867H33.9453C33.9453 143.378 33.8672 143.784 33.7109 144.086C33.5547 144.383 33.3411 144.612 33.0703 144.773C32.8047 144.935 32.5026 145.057 32.1641 145.141C31.8307 145.224 31.4844 145.305 31.125 145.383C30.6771 145.477 30.2604 145.625 29.875 145.828C29.4948 146.026 29.1667 146.307 28.8906 146.672C28.6198 147.036 28.4193 147.51 28.2891 148.094C28.1641 148.677 28.1302 149.398 28.1875 150.258V150.977H27V150.258C27 149.294 27.0911 148.453 27.2734 147.734C27.4609 147.016 27.724 146.409 28.0625 145.914C28.401 145.419 28.8021 145.026 29.2656 144.734C29.7344 144.443 30.25 144.242 30.8125 144.133C31.2188 144.055 31.5677 143.971 31.8594 143.883C32.151 143.789 32.3724 143.664 32.5234 143.508C32.6797 143.352 32.7578 143.138 32.7578 142.867ZM31.0469 147.031C31.599 147.031 32.0911 147.128 32.5234 147.32C32.9557 147.513 33.3229 147.781 33.625 148.125C33.9271 148.469 34.1562 148.875 34.3125 149.344C34.474 149.807 34.5547 150.312 34.5547 150.859V151.031C34.5547 151.62 34.4688 152.167 34.2969 152.672C34.1302 153.172 33.8828 153.609 33.5547 153.984C33.2318 154.354 32.8359 154.643 32.3672 154.852C31.9036 155.06 31.375 155.164 30.7812 155.164C30.1875 155.164 29.6562 155.06 29.1875 154.852C28.724 154.643 28.3281 154.354 28 153.984C27.6719 153.609 27.4219 153.172 27.25 152.672C27.0833 152.167 27 151.62 27 151.031V150.859C27 150.729 27.0234 150.602 27.0703 150.477C27.1172 150.352 27.1745 150.224 27.2422 150.094C27.3151 149.964 27.3802 149.826 27.4375 149.68C27.6302 149.211 27.8932 148.776 28.2266 148.375C28.5651 147.974 28.9688 147.651 29.4375 147.406C29.9115 147.156 30.4479 147.031 31.0469 147.031ZM30.7656 148.211C30.2344 148.211 29.7969 148.333 29.4531 148.578C29.1146 148.823 28.862 149.148 28.6953 149.555C28.5286 149.956 28.4453 150.391 28.4453 150.859V151.031C28.4453 151.427 28.4922 151.802 28.5859 152.156C28.6797 152.51 28.8203 152.826 29.0078 153.102C29.2005 153.372 29.4427 153.586 29.7344 153.742C30.0312 153.898 30.3802 153.977 30.7812 153.977C31.1823 153.977 31.5286 153.898 31.8203 153.742C32.112 153.586 32.3516 153.372 32.5391 153.102C32.7266 152.826 32.8672 152.51 32.9609 152.156C33.0547 151.802 33.1016 151.427 33.1016 151.031V150.859C33.1016 150.505 33.0547 150.169 32.9609 149.852C32.8672 149.534 32.724 149.253 32.5312 149.008C32.3438 148.763 32.1016 148.57 31.8047 148.43C31.513 148.284 31.1667 148.211 30.7656 148.211ZM41.8438 146.547V147.742H37.7578V146.547H41.8438ZM43.1172 146.547V155H41.6719V146.547H43.1172ZM37.4062 146.547H38.8594L38.6406 150.625C38.6042 151.255 38.5443 151.812 38.4609 152.297C38.3828 152.776 38.2734 153.188 38.1328 153.531C37.9974 153.875 37.8255 154.156 37.6172 154.375C37.4141 154.589 37.1693 154.747 36.8828 154.852C36.5964 154.951 36.2656 155 35.8906 155H35.4375V153.727L35.75 153.703C35.974 153.688 36.1641 153.635 36.3203 153.547C36.4818 153.458 36.6172 153.328 36.7266 153.156C36.8359 152.979 36.9245 152.753 36.9922 152.477C37.0651 152.201 37.1198 151.872 37.1562 151.492C37.1979 151.112 37.2292 150.669 37.25 150.164L37.4062 146.547ZM50.4297 153.555V149.203C50.4297 148.87 50.362 148.581 50.2266 148.336C50.0964 148.086 49.8984 147.893 49.6328 147.758C49.3672 147.622 49.0391 147.555 48.6484 147.555C48.2839 147.555 47.9635 147.617 47.6875 147.742C47.4167 147.867 47.2031 148.031 47.0469 148.234C46.8958 148.438 46.8203 148.656 46.8203 148.891H45.375C45.375 148.589 45.4531 148.289 45.6094 147.992C45.7656 147.695 45.9896 147.427 46.2812 147.188C46.5781 146.943 46.9323 146.75 47.3438 146.609C47.7604 146.464 48.224 146.391 48.7344 146.391C49.349 146.391 49.8906 146.495 50.3594 146.703C50.8333 146.911 51.2031 147.227 51.4688 147.648C51.7396 148.065 51.875 148.589 51.875 149.219V153.156C51.875 153.438 51.8984 153.737 51.9453 154.055C51.9974 154.372 52.0729 154.646 52.1719 154.875V155H50.6641C50.5911 154.833 50.5339 154.612 50.4922 154.336C50.4505 154.055 50.4297 153.794 50.4297 153.555ZM50.6797 149.875L50.6953 150.891H49.2344C48.8229 150.891 48.4557 150.924 48.1328 150.992C47.8099 151.055 47.5391 151.151 47.3203 151.281C47.1016 151.411 46.9349 151.576 46.8203 151.773C46.7057 151.966 46.6484 152.193 46.6484 152.453C46.6484 152.719 46.7083 152.961 46.8281 153.18C46.9479 153.398 47.1276 153.573 47.3672 153.703C47.612 153.828 47.9115 153.891 48.2656 153.891C48.7083 153.891 49.099 153.797 49.4375 153.609C49.776 153.422 50.0443 153.193 50.2422 152.922C50.4453 152.651 50.5547 152.388 50.5703 152.133L51.1875 152.828C51.151 153.047 51.0521 153.289 50.8906 153.555C50.7292 153.82 50.513 154.076 50.2422 154.32C49.9766 154.56 49.6589 154.76 49.2891 154.922C48.9245 155.078 48.513 155.156 48.0547 155.156C47.4818 155.156 46.9792 155.044 46.5469 154.82C46.1198 154.596 45.7865 154.297 45.5469 153.922C45.3125 153.542 45.1953 153.117 45.1953 152.648C45.1953 152.195 45.2839 151.797 45.4609 151.453C45.638 151.104 45.8932 150.815 46.2266 150.586C46.5599 150.352 46.9609 150.174 47.4297 150.055C47.8984 149.935 48.4219 149.875 49 149.875H50.6797ZM55.6719 146.547H57.1172L56.9922 149.711C56.9609 150.513 56.8698 151.206 56.7188 151.789C56.5677 152.372 56.375 152.87 56.1406 153.281C55.9062 153.688 55.6432 154.029 55.3516 154.305C55.0651 154.581 54.7682 154.812 54.4609 155H53.7422L53.7812 153.82L54.0781 153.812C54.25 153.609 54.4167 153.401 54.5781 153.188C54.7396 152.969 54.888 152.711 55.0234 152.414C55.1589 152.112 55.2708 151.745 55.3594 151.312C55.4531 150.875 55.513 150.341 55.5391 149.711L55.6719 146.547ZM56.0312 146.547H61.1172V155H59.6719V147.883H56.0312V146.547ZM53.4141 153.812H62.2031V157.492H60.7578V155H54.8594V157.492H53.4062L53.4141 153.812ZM69.5391 150.211V151.383H65.0703V150.211H69.5391ZM65.375 146.547V155H63.9297V146.547H65.375ZM70.7109 146.547V155H69.2578V146.547H70.7109ZM78.0234 153.555V149.203C78.0234 148.87 77.9557 148.581 77.8203 148.336C77.6901 148.086 77.4922 147.893 77.2266 147.758C76.9609 147.622 76.6328 147.555 76.2422 147.555C75.8776 147.555 75.5573 147.617 75.2812 147.742C75.0104 147.867 74.7969 148.031 74.6406 148.234C74.4896 148.438 74.4141 148.656 74.4141 148.891H72.9688C72.9688 148.589 73.0469 148.289 73.2031 147.992C73.3594 147.695 73.5833 147.427 73.875 147.188C74.1719 146.943 74.526 146.75 74.9375 146.609C75.3542 146.464 75.8177 146.391 76.3281 146.391C76.9427 146.391 77.4844 146.495 77.9531 146.703C78.4271 146.911 78.7969 147.227 79.0625 147.648C79.3333 148.065 79.4688 148.589 79.4688 149.219V153.156C79.4688 153.438 79.4922 153.737 79.5391 154.055C79.5911 154.372 79.6667 154.646 79.7656 154.875V155H78.2578C78.1849 154.833 78.1276 154.612 78.0859 154.336C78.0443 154.055 78.0234 153.794 78.0234 153.555ZM78.2734 149.875L78.2891 150.891H76.8281C76.4167 150.891 76.0495 150.924 75.7266 150.992C75.4036 151.055 75.1328 151.151 74.9141 151.281C74.6953 151.411 74.5286 151.576 74.4141 151.773C74.2995 151.966 74.2422 152.193 74.2422 152.453C74.2422 152.719 74.3021 152.961 74.4219 153.18C74.5417 153.398 74.7214 153.573 74.9609 153.703C75.2057 153.828 75.5052 153.891 75.8594 153.891C76.3021 153.891 76.6927 153.797 77.0312 153.609C77.3698 153.422 77.638 153.193 77.8359 152.922C78.0391 152.651 78.1484 152.388 78.1641 152.133L78.7812 152.828C78.7448 153.047 78.6458 153.289 78.4844 153.555C78.3229 153.82 78.1068 154.076 77.8359 154.32C77.5703 154.56 77.2526 154.76 76.8828 154.922C76.5182 155.078 76.1068 155.156 75.6484 155.156C75.0755 155.156 74.5729 155.044 74.1406 154.82C73.7135 154.596 73.3802 154.297 73.1406 153.922C72.9062 153.542 72.7891 153.117 72.7891 152.648C72.7891 152.195 72.8776 151.797 73.0547 151.453C73.2318 151.104 73.487 150.815 73.8203 150.586C74.1536 150.352 74.5547 150.174 75.0234 150.055C75.4922 149.935 76.0156 149.875 76.5938 149.875H78.2734ZM87.4766 150.211V151.383H83.0078V150.211H87.4766ZM83.3125 146.547V155H81.8672V146.547H83.3125ZM88.6484 146.547V155H87.1953V146.547H88.6484ZM96.7109 150.211V151.383H92.2422V150.211H96.7109ZM92.5469 146.547V155H91.1016V146.547H92.5469ZM97.8828 146.547V155H96.4297V146.547H97.8828ZM101.922 150.969H103.484L101.039 155H99.4766L101.922 150.969ZM103.133 146.547H106.664V155H105.219V147.719H103.133C102.721 147.719 102.385 147.789 102.125 147.93C101.865 148.065 101.674 148.242 101.555 148.461C101.435 148.68 101.375 148.906 101.375 149.141C101.375 149.37 101.43 149.591 101.539 149.805C101.648 150.013 101.82 150.185 102.055 150.32C102.289 150.456 102.591 150.523 102.961 150.523H105.609V151.711H102.961C102.477 151.711 102.047 151.646 101.672 151.516C101.297 151.385 100.979 151.206 100.719 150.977C100.458 150.742 100.26 150.469 100.125 150.156C99.9896 149.839 99.9219 149.495 99.9219 149.125C99.9219 148.755 99.9922 148.414 100.133 148.102C100.279 147.789 100.487 147.516 100.758 147.281C101.034 147.047 101.37 146.867 101.766 146.742C102.167 146.612 102.622 146.547 103.133 146.547Z" fill="#0D0D0D"/>
<path d="M78.2817 74.6239C78.0215 74.6239 77.7814 74.5813 77.5614 74.4961C77.3414 74.4109 77.1261 74.2629 76.9154 74.0523L64.8692 62.0526C64.6586 61.8419 64.5106 61.6266 64.4254 61.4066C64.3402 61.1866 64.2976 60.9465 64.2976 60.6863C64.2976 60.426 64.3402 60.1859 64.4254 59.9659C64.5106 59.7459 64.6586 59.5306 64.8692 59.3199L68.8893 55.2999C69.1 55.0892 69.3153 54.9412 69.5353 54.856C69.7553 54.7708 69.9954 54.7282 70.2556 54.7282C70.5159 54.7282 70.756 54.7708 70.976 54.856C71.196 54.9412 71.4113 55.0892 71.622 55.2999L83.6681 67.346C83.8788 67.5567 84.0268 67.772 84.112 67.992C84.1972 68.212 84.2398 68.4521 84.2398 68.7124C84.2398 68.9726 84.1972 69.2127 84.112 69.4327C84.0268 69.6527 83.8788 69.868 83.6681 70.0787L79.6481 74.0523C79.4374 74.2629 79.2221 74.4109 79.0021 74.4961C78.7821 74.5813 78.542 74.6239 78.2817 74.6239ZM78.2817 72.091L81.6604 68.7124L70.2696 57.3215L66.8909 60.7002L78.2817 72.091ZM46.972 74.6378C46.7117 74.6378 46.4693 74.5929 46.2446 74.5031C46.02 74.4132 45.8024 74.2629 45.5917 74.0523L41.5856 70.0926C41.3749 69.8819 41.2246 69.6643 41.1348 69.4397C41.0449 69.215 41 68.9726 41 68.7124C41 68.4521 41.0449 68.2042 41.1348 67.9688C41.2246 67.7333 41.3749 67.5102 41.5856 67.2995L54.0221 54.863H59.0646L60.9328 52.9947L50.6853 42.7471H47.2415L41.1394 36.6451L46.2935 31.491L52.3956 37.5931V41.0369L62.6431 51.2844L69.9303 43.9973L65.4735 39.5404L68.2061 36.8077H62.7268L61.7322 35.8596L68.5919 29L69.5399 29.9481V35.4739L72.2726 32.7412L81.8742 42.2499C82.466 42.8106 82.9044 43.4543 83.1894 44.1808C83.4745 44.9074 83.617 45.6766 83.617 46.4883C83.617 47.0832 83.5287 47.661 83.3521 48.2218C83.1755 48.7826 82.9153 49.3124 82.5714 49.8112L77.6218 44.8617L74.192 48.2915L71.6081 45.7076L60.7284 56.5872V61.7087L48.3383 74.0523C48.1276 74.2629 47.9123 74.4132 47.6924 74.5031C47.4724 74.5929 47.2322 74.6378 46.972 74.6378ZM46.972 72.0446L58.8694 60.1472V56.7685H55.4908L43.5933 68.6659L46.972 72.0446ZM46.972 72.0446L43.5933 68.6659L45.2896 70.3483L46.972 72.0446Z" fill="#F8F8F8"/>
<ellipse cx="249.083" cy="51.5112" rx="52.0833" ry="51.5112" fill="#A3D9D3"/>
<path d="M220.312 124.625H221.828V134.773H225.734V124.625H227.234V134.773H231.117V124.625H232.625V136H220.312V124.625ZM239.07 132.281H236.297L236.281 131.125H238.547C238.995 131.125 239.367 131.081 239.664 130.992C239.966 130.904 240.193 130.771 240.344 130.594C240.495 130.417 240.57 130.198 240.57 129.938C240.57 129.734 240.526 129.557 240.438 129.406C240.354 129.25 240.227 129.122 240.055 129.023C239.883 128.919 239.669 128.844 239.414 128.797C239.164 128.745 238.87 128.719 238.531 128.719H236.68V136H235.234V127.547H238.531C239.068 127.547 239.549 127.594 239.977 127.688C240.409 127.781 240.776 127.924 241.078 128.117C241.385 128.305 241.62 128.544 241.781 128.836C241.943 129.128 242.023 129.471 242.023 129.867C242.023 130.122 241.971 130.365 241.867 130.594C241.763 130.823 241.609 131.026 241.406 131.203C241.203 131.38 240.953 131.526 240.656 131.641C240.359 131.75 240.018 131.82 239.633 131.852L239.07 132.281ZM239.07 136H235.773L236.492 134.828H239.07C239.471 134.828 239.805 134.779 240.07 134.68C240.336 134.576 240.534 134.43 240.664 134.242C240.799 134.049 240.867 133.82 240.867 133.555C240.867 133.289 240.799 133.062 240.664 132.875C240.534 132.682 240.336 132.536 240.07 132.438C239.805 132.333 239.471 132.281 239.07 132.281H236.875L236.891 131.125H239.633L240.156 131.562C240.62 131.599 241.013 131.714 241.336 131.906C241.659 132.099 241.904 132.344 242.07 132.641C242.237 132.932 242.32 133.25 242.32 133.594C242.32 133.99 242.245 134.339 242.094 134.641C241.948 134.943 241.734 135.195 241.453 135.398C241.172 135.596 240.831 135.747 240.43 135.852C240.029 135.951 239.576 136 239.07 136ZM245.82 133.711L249.719 127.547H251.172V136H249.719V129.836L245.82 136H244.383V127.547H245.82V133.711ZM255.016 127.547H256.461L256.336 130.711C256.305 131.513 256.214 132.206 256.062 132.789C255.911 133.372 255.719 133.87 255.484 134.281C255.25 134.688 254.987 135.029 254.695 135.305C254.409 135.581 254.112 135.812 253.805 136H253.086L253.125 134.82L253.422 134.812C253.594 134.609 253.76 134.401 253.922 134.188C254.083 133.969 254.232 133.711 254.367 133.414C254.503 133.112 254.615 132.745 254.703 132.312C254.797 131.875 254.857 131.341 254.883 130.711L255.016 127.547ZM255.375 127.547H260.461V136H259.016V128.883H255.375V127.547ZM252.758 134.812H261.547V138.492H260.102V136H254.203V138.492H252.75L252.758 134.812ZM264.719 127.547V136H263.273V127.547H264.719ZM270.266 127.547L266.258 132.391H264.234L264.016 131.125H265.672L268.508 127.547H270.266ZM268.711 136L265.602 132.172L266.531 131.125L270.547 136H268.711ZM275.188 136.156C274.599 136.156 274.065 136.057 273.586 135.859C273.112 135.656 272.703 135.372 272.359 135.008C272.021 134.643 271.76 134.211 271.578 133.711C271.396 133.211 271.305 132.664 271.305 132.07V131.742C271.305 131.055 271.406 130.443 271.609 129.906C271.812 129.365 272.089 128.906 272.438 128.531C272.786 128.156 273.182 127.872 273.625 127.68C274.068 127.487 274.526 127.391 275 127.391C275.604 127.391 276.125 127.495 276.562 127.703C277.005 127.911 277.367 128.203 277.648 128.578C277.93 128.948 278.138 129.385 278.273 129.891C278.409 130.391 278.477 130.938 278.477 131.531V132.18H272.164V131H277.031V130.891C277.01 130.516 276.932 130.151 276.797 129.797C276.667 129.443 276.458 129.151 276.172 128.922C275.885 128.693 275.495 128.578 275 128.578C274.672 128.578 274.37 128.648 274.094 128.789C273.818 128.924 273.581 129.128 273.383 129.398C273.185 129.669 273.031 130 272.922 130.391C272.812 130.781 272.758 131.232 272.758 131.742V132.07C272.758 132.471 272.812 132.849 272.922 133.203C273.036 133.552 273.201 133.859 273.414 134.125C273.633 134.391 273.896 134.599 274.203 134.75C274.516 134.901 274.87 134.977 275.266 134.977C275.776 134.977 276.208 134.872 276.562 134.664C276.917 134.456 277.227 134.177 277.492 133.828L278.367 134.523C278.185 134.799 277.953 135.062 277.672 135.312C277.391 135.562 277.044 135.766 276.633 135.922C276.227 136.078 275.745 136.156 275.188 136.156ZM189.406 150.867V150.688C189.406 150.078 189.495 149.513 189.672 148.992C189.849 148.466 190.104 148.01 190.438 147.625C190.771 147.234 191.174 146.932 191.648 146.719C192.122 146.5 192.654 146.391 193.242 146.391C193.836 146.391 194.37 146.5 194.844 146.719C195.323 146.932 195.729 147.234 196.062 147.625C196.401 148.01 196.659 148.466 196.836 148.992C197.013 149.513 197.102 150.078 197.102 150.688V150.867C197.102 151.477 197.013 152.042 196.836 152.562C196.659 153.083 196.401 153.539 196.062 153.93C195.729 154.315 195.326 154.617 194.852 154.836C194.383 155.049 193.852 155.156 193.258 155.156C192.664 155.156 192.13 155.049 191.656 154.836C191.182 154.617 190.776 154.315 190.438 153.93C190.104 153.539 189.849 153.083 189.672 152.562C189.495 152.042 189.406 151.477 189.406 150.867ZM190.852 150.688V150.867C190.852 151.289 190.901 151.688 191 152.062C191.099 152.432 191.247 152.76 191.445 153.047C191.648 153.333 191.901 153.56 192.203 153.727C192.505 153.888 192.857 153.969 193.258 153.969C193.654 153.969 194 153.888 194.297 153.727C194.599 153.56 194.849 153.333 195.047 153.047C195.245 152.76 195.393 152.432 195.492 152.062C195.596 151.688 195.648 151.289 195.648 150.867V150.688C195.648 150.271 195.596 149.878 195.492 149.508C195.393 149.133 195.242 148.802 195.039 148.516C194.841 148.224 194.591 147.995 194.289 147.828C193.992 147.661 193.643 147.578 193.242 147.578C192.846 147.578 192.497 147.661 192.195 147.828C191.898 147.995 191.648 148.224 191.445 148.516C191.247 148.802 191.099 149.133 191 149.508C190.901 149.878 190.852 150.271 190.852 150.688ZM204.336 142.867H205.523C205.523 143.378 205.445 143.784 205.289 144.086C205.133 144.383 204.919 144.612 204.648 144.773C204.383 144.935 204.081 145.057 203.742 145.141C203.409 145.224 203.062 145.305 202.703 145.383C202.255 145.477 201.839 145.625 201.453 145.828C201.073 146.026 200.745 146.307 200.469 146.672C200.198 147.036 199.997 147.51 199.867 148.094C199.742 148.677 199.708 149.398 199.766 150.258V150.977H198.578V150.258C198.578 149.294 198.669 148.453 198.852 147.734C199.039 147.016 199.302 146.409 199.641 145.914C199.979 145.419 200.38 145.026 200.844 144.734C201.312 144.443 201.828 144.242 202.391 144.133C202.797 144.055 203.146 143.971 203.438 143.883C203.729 143.789 203.951 143.664 204.102 143.508C204.258 143.352 204.336 143.138 204.336 142.867ZM202.625 147.031C203.177 147.031 203.669 147.128 204.102 147.32C204.534 147.513 204.901 147.781 205.203 148.125C205.505 148.469 205.734 148.875 205.891 149.344C206.052 149.807 206.133 150.312 206.133 150.859V151.031C206.133 151.62 206.047 152.167 205.875 152.672C205.708 153.172 205.461 153.609 205.133 153.984C204.81 154.354 204.414 154.643 203.945 154.852C203.482 155.06 202.953 155.164 202.359 155.164C201.766 155.164 201.234 155.06 200.766 154.852C200.302 154.643 199.906 154.354 199.578 153.984C199.25 153.609 199 153.172 198.828 152.672C198.661 152.167 198.578 151.62 198.578 151.031V150.859C198.578 150.729 198.602 150.602 198.648 150.477C198.695 150.352 198.753 150.224 198.82 150.094C198.893 149.964 198.958 149.826 199.016 149.68C199.208 149.211 199.471 148.776 199.805 148.375C200.143 147.974 200.547 147.651 201.016 147.406C201.49 147.156 202.026 147.031 202.625 147.031ZM202.344 148.211C201.812 148.211 201.375 148.333 201.031 148.578C200.693 148.823 200.44 149.148 200.273 149.555C200.107 149.956 200.023 150.391 200.023 150.859V151.031C200.023 151.427 200.07 151.802 200.164 152.156C200.258 152.51 200.398 152.826 200.586 153.102C200.779 153.372 201.021 153.586 201.312 153.742C201.609 153.898 201.958 153.977 202.359 153.977C202.76 153.977 203.107 153.898 203.398 153.742C203.69 153.586 203.93 153.372 204.117 153.102C204.305 152.826 204.445 152.51 204.539 152.156C204.633 151.802 204.68 151.427 204.68 151.031V150.859C204.68 150.505 204.633 150.169 204.539 149.852C204.445 149.534 204.302 149.253 204.109 149.008C203.922 148.763 203.68 148.57 203.383 148.43C203.091 148.284 202.745 148.211 202.344 148.211ZM211.156 153.969C211.5 153.969 211.818 153.898 212.109 153.758C212.401 153.617 212.641 153.424 212.828 153.18C213.016 152.93 213.122 152.646 213.148 152.328H214.523C214.497 152.828 214.328 153.294 214.016 153.727C213.708 154.154 213.305 154.5 212.805 154.766C212.305 155.026 211.755 155.156 211.156 155.156C210.521 155.156 209.966 155.044 209.492 154.82C209.023 154.596 208.633 154.289 208.32 153.898C208.013 153.508 207.781 153.06 207.625 152.555C207.474 152.044 207.398 151.505 207.398 150.938V150.609C207.398 150.042 207.474 149.505 207.625 149C207.781 148.49 208.013 148.039 208.32 147.648C208.633 147.258 209.023 146.951 209.492 146.727C209.966 146.503 210.521 146.391 211.156 146.391C211.818 146.391 212.396 146.526 212.891 146.797C213.385 147.062 213.773 147.427 214.055 147.891C214.341 148.349 214.497 148.87 214.523 149.453H213.148C213.122 149.104 213.023 148.789 212.852 148.508C212.685 148.227 212.456 148.003 212.164 147.836C211.878 147.664 211.542 147.578 211.156 147.578C210.714 147.578 210.341 147.667 210.039 147.844C209.742 148.016 209.505 148.25 209.328 148.547C209.156 148.839 209.031 149.164 208.953 149.523C208.88 149.878 208.844 150.24 208.844 150.609V150.938C208.844 151.307 208.88 151.672 208.953 152.031C209.026 152.391 209.148 152.716 209.32 153.008C209.497 153.299 209.734 153.534 210.031 153.711C210.333 153.883 210.708 153.969 211.156 153.969ZM221.797 146.547V147.742H217.711V146.547H221.797ZM223.07 146.547V155H221.625V146.547H223.07ZM217.359 146.547H218.812L218.594 150.625C218.557 151.255 218.497 151.812 218.414 152.297C218.336 152.776 218.227 153.188 218.086 153.531C217.951 153.875 217.779 154.156 217.57 154.375C217.367 154.589 217.122 154.747 216.836 154.852C216.549 154.951 216.219 155 215.844 155H215.391V153.727L215.703 153.703C215.927 153.688 216.117 153.635 216.273 153.547C216.435 153.458 216.57 153.328 216.68 153.156C216.789 152.979 216.878 152.753 216.945 152.477C217.018 152.201 217.073 151.872 217.109 151.492C217.151 151.112 217.182 150.669 217.203 150.164L217.359 146.547ZM227.773 154.125L230.125 146.547H231.672L228.281 156.305C228.203 156.513 228.099 156.737 227.969 156.977C227.844 157.221 227.682 157.453 227.484 157.672C227.286 157.891 227.047 158.068 226.766 158.203C226.49 158.344 226.159 158.414 225.773 158.414C225.659 158.414 225.513 158.398 225.336 158.367C225.159 158.336 225.034 158.31 224.961 158.289L224.953 157.117C224.995 157.122 225.06 157.128 225.148 157.133C225.242 157.143 225.307 157.148 225.344 157.148C225.672 157.148 225.951 157.104 226.18 157.016C226.409 156.932 226.602 156.789 226.758 156.586C226.919 156.388 227.057 156.115 227.172 155.766L227.773 154.125ZM226.047 146.547L228.242 153.109L228.617 154.633L227.578 155.164L224.469 146.547H226.047ZM238.438 146.547V147.742H234.531V155H233.086V146.547H238.438ZM239.156 150.867V150.688C239.156 150.078 239.245 149.513 239.422 148.992C239.599 148.466 239.854 148.01 240.188 147.625C240.521 147.234 240.924 146.932 241.398 146.719C241.872 146.5 242.404 146.391 242.992 146.391C243.586 146.391 244.12 146.5 244.594 146.719C245.073 146.932 245.479 147.234 245.812 147.625C246.151 148.01 246.409 148.466 246.586 148.992C246.763 149.513 246.852 150.078 246.852 150.688V150.867C246.852 151.477 246.763 152.042 246.586 152.562C246.409 153.083 246.151 153.539 245.812 153.93C245.479 154.315 245.076 154.617 244.602 154.836C244.133 155.049 243.602 155.156 243.008 155.156C242.414 155.156 241.88 155.049 241.406 154.836C240.932 154.617 240.526 154.315 240.188 153.93C239.854 153.539 239.599 153.083 239.422 152.562C239.245 152.042 239.156 151.477 239.156 150.867ZM240.602 150.688V150.867C240.602 151.289 240.651 151.688 240.75 152.062C240.849 152.432 240.997 152.76 241.195 153.047C241.398 153.333 241.651 153.56 241.953 153.727C242.255 153.888 242.607 153.969 243.008 153.969C243.404 153.969 243.75 153.888 244.047 153.727C244.349 153.56 244.599 153.333 244.797 153.047C244.995 152.76 245.143 152.432 245.242 152.062C245.346 151.688 245.398 151.289 245.398 150.867V150.688C245.398 150.271 245.346 149.878 245.242 149.508C245.143 149.133 244.992 148.802 244.789 148.516C244.591 148.224 244.341 147.995 244.039 147.828C243.742 147.661 243.393 147.578 242.992 147.578C242.596 147.578 242.247 147.661 241.945 147.828C241.648 147.995 241.398 148.224 241.195 148.516C240.997 148.802 240.849 149.133 240.75 149.508C240.651 149.878 240.602 150.271 240.602 150.688ZM252.633 151.281H249.859L249.844 150.125H252.109C252.557 150.125 252.93 150.081 253.227 149.992C253.529 149.904 253.755 149.771 253.906 149.594C254.057 149.417 254.133 149.198 254.133 148.938C254.133 148.734 254.089 148.557 254 148.406C253.917 148.25 253.789 148.122 253.617 148.023C253.445 147.919 253.232 147.844 252.977 147.797C252.727 147.745 252.432 147.719 252.094 147.719H250.242V155H248.797V146.547H252.094C252.63 146.547 253.112 146.594 253.539 146.688C253.971 146.781 254.339 146.924 254.641 147.117C254.948 147.305 255.182 147.544 255.344 147.836C255.505 148.128 255.586 148.471 255.586 148.867C255.586 149.122 255.534 149.365 255.43 149.594C255.326 149.823 255.172 150.026 254.969 150.203C254.766 150.38 254.516 150.526 254.219 150.641C253.922 150.75 253.581 150.82 253.195 150.852L252.633 151.281ZM252.633 155H249.336L250.055 153.828H252.633C253.034 153.828 253.367 153.779 253.633 153.68C253.898 153.576 254.096 153.43 254.227 153.242C254.362 153.049 254.43 152.82 254.43 152.555C254.43 152.289 254.362 152.062 254.227 151.875C254.096 151.682 253.898 151.536 253.633 151.438C253.367 151.333 253.034 151.281 252.633 151.281H250.438L250.453 150.125H253.195L253.719 150.562C254.182 150.599 254.576 150.714 254.898 150.906C255.221 151.099 255.466 151.344 255.633 151.641C255.799 151.932 255.883 152.25 255.883 152.594C255.883 152.99 255.807 153.339 255.656 153.641C255.51 153.943 255.297 154.195 255.016 154.398C254.734 154.596 254.393 154.747 253.992 154.852C253.591 154.951 253.138 155 252.633 155ZM260.102 154.125L262.453 146.547H264L260.609 156.305C260.531 156.513 260.427 156.737 260.297 156.977C260.172 157.221 260.01 157.453 259.812 157.672C259.615 157.891 259.375 158.068 259.094 158.203C258.818 158.344 258.487 158.414 258.102 158.414C257.987 158.414 257.841 158.398 257.664 158.367C257.487 158.336 257.362 158.31 257.289 158.289L257.281 157.117C257.323 157.122 257.388 157.128 257.477 157.133C257.57 157.143 257.635 157.148 257.672 157.148C258 157.148 258.279 157.104 258.508 157.016C258.737 156.932 258.93 156.789 259.086 156.586C259.247 156.388 259.385 156.115 259.5 155.766L260.102 154.125ZM258.375 146.547L260.57 153.109L260.945 154.633L259.906 155.164L256.797 146.547H258.375ZM269.273 151.281H266.5L266.484 150.125H268.75C269.198 150.125 269.57 150.081 269.867 149.992C270.169 149.904 270.396 149.771 270.547 149.594C270.698 149.417 270.773 149.198 270.773 148.938C270.773 148.734 270.729 148.557 270.641 148.406C270.557 148.25 270.43 148.122 270.258 148.023C270.086 147.919 269.872 147.844 269.617 147.797C269.367 147.745 269.073 147.719 268.734 147.719H266.883V155H265.438V146.547H268.734C269.271 146.547 269.753 146.594 270.18 146.688C270.612 146.781 270.979 146.924 271.281 147.117C271.589 147.305 271.823 147.544 271.984 147.836C272.146 148.128 272.227 148.471 272.227 148.867C272.227 149.122 272.174 149.365 272.07 149.594C271.966 149.823 271.812 150.026 271.609 150.203C271.406 150.38 271.156 150.526 270.859 150.641C270.562 150.75 270.221 150.82 269.836 150.852L269.273 151.281ZM269.273 155H265.977L266.695 153.828H269.273C269.674 153.828 270.008 153.779 270.273 153.68C270.539 153.576 270.737 153.43 270.867 153.242C271.003 153.049 271.07 152.82 271.07 152.555C271.07 152.289 271.003 152.062 270.867 151.875C270.737 151.682 270.539 151.536 270.273 151.438C270.008 151.333 269.674 151.281 269.273 151.281H267.078L267.094 150.125H269.836L270.359 150.562C270.823 150.599 271.216 150.714 271.539 150.906C271.862 151.099 272.107 151.344 272.273 151.641C272.44 151.932 272.523 152.25 272.523 152.594C272.523 152.99 272.448 153.339 272.297 153.641C272.151 153.943 271.938 154.195 271.656 154.398C271.375 154.596 271.034 154.747 270.633 154.852C270.232 154.951 269.779 155 269.273 155ZM279.445 153.555V149.203C279.445 148.87 279.378 148.581 279.242 148.336C279.112 148.086 278.914 147.893 278.648 147.758C278.383 147.622 278.055 147.555 277.664 147.555C277.299 147.555 276.979 147.617 276.703 147.742C276.432 147.867 276.219 148.031 276.062 148.234C275.911 148.438 275.836 148.656 275.836 148.891H274.391C274.391 148.589 274.469 148.289 274.625 147.992C274.781 147.695 275.005 147.427 275.297 147.188C275.594 146.943 275.948 146.75 276.359 146.609C276.776 146.464 277.24 146.391 277.75 146.391C278.365 146.391 278.906 146.495 279.375 146.703C279.849 146.911 280.219 147.227 280.484 147.648C280.755 148.065 280.891 148.589 280.891 149.219V153.156C280.891 153.438 280.914 153.737 280.961 154.055C281.013 154.372 281.089 154.646 281.188 154.875V155H279.68C279.607 154.833 279.549 154.612 279.508 154.336C279.466 154.055 279.445 153.794 279.445 153.555ZM279.695 149.875L279.711 150.891H278.25C277.839 150.891 277.471 150.924 277.148 150.992C276.826 151.055 276.555 151.151 276.336 151.281C276.117 151.411 275.951 151.576 275.836 151.773C275.721 151.966 275.664 152.193 275.664 152.453C275.664 152.719 275.724 152.961 275.844 153.18C275.964 153.398 276.143 153.573 276.383 153.703C276.628 153.828 276.927 153.891 277.281 153.891C277.724 153.891 278.115 153.797 278.453 153.609C278.792 153.422 279.06 153.193 279.258 152.922C279.461 152.651 279.57 152.388 279.586 152.133L280.203 152.828C280.167 153.047 280.068 153.289 279.906 153.555C279.745 153.82 279.529 154.076 279.258 154.32C278.992 154.56 278.674 154.76 278.305 154.922C277.94 155.078 277.529 155.156 277.07 155.156C276.497 155.156 275.995 155.044 275.562 154.82C275.135 154.596 274.802 154.297 274.562 153.922C274.328 153.542 274.211 153.117 274.211 152.648C274.211 152.195 274.299 151.797 274.477 151.453C274.654 151.104 274.909 150.815 275.242 150.586C275.576 150.352 275.977 150.174 276.445 150.055C276.914 149.935 277.438 149.875 278.016 149.875H279.695ZM288.898 150.211V151.383H284.43V150.211H288.898ZM284.734 146.547V155H283.289V146.547H284.734ZM290.07 146.547V155H288.617V146.547H290.07ZM298.133 150.211V151.383H293.664V150.211H298.133ZM293.969 146.547V155H292.523V146.547H293.969ZM299.305 146.547V155H297.852V146.547H299.305ZM303.344 150.969H304.906L302.461 155H300.898L303.344 150.969ZM304.555 146.547H308.086V155H306.641V147.719H304.555C304.143 147.719 303.807 147.789 303.547 147.93C303.286 148.065 303.096 148.242 302.977 148.461C302.857 148.68 302.797 148.906 302.797 149.141C302.797 149.37 302.852 149.591 302.961 149.805C303.07 150.013 303.242 150.185 303.477 150.32C303.711 150.456 304.013 150.523 304.383 150.523H307.031V151.711H304.383C303.898 151.711 303.469 151.646 303.094 151.516C302.719 151.385 302.401 151.206 302.141 150.977C301.88 150.742 301.682 150.469 301.547 150.156C301.411 149.839 301.344 149.495 301.344 149.125C301.344 148.755 301.414 148.414 301.555 148.102C301.701 147.789 301.909 147.516 302.18 147.281C302.456 147.047 302.792 146.867 303.188 146.742C303.589 146.612 304.044 146.547 304.555 146.547Z" fill="#0D0D0D"/>
<path d="M257.396 72C251.91 72 247.263 70.0602 243.456 66.1806C239.649 62.301 237.745 57.5662 237.745 51.9762C237.745 46.428 239.649 41.7115 243.456 37.8269C247.263 33.9423 251.91 32 257.396 32C262.841 32 267.469 33.9423 271.282 37.8269C275.094 41.7115 277 46.428 277 51.9762C277 57.5662 275.094 62.301 271.282 66.1806C267.469 70.0602 262.841 72 257.396 72ZM257.373 69.1429C262.046 69.1429 266.018 67.4762 269.289 64.1429C272.56 60.8095 274.196 56.7619 274.196 52C274.196 47.2381 272.56 43.1905 269.289 39.8571C266.018 36.5238 262.046 34.8571 257.373 34.8571C252.699 34.8571 248.727 36.5238 245.456 39.8571C242.185 43.1905 240.549 47.2381 240.549 52C240.549 56.7619 242.185 60.8095 245.456 64.1429C248.727 67.4762 252.699 69.1429 257.373 69.1429ZM264.291 61.1594L266.291 59.1209L258.775 51.4615V41.4506H255.971V52.6099L264.291 61.1594ZM224.804 42V39.1429H234.941V42H224.804ZM222 53.4286V50.5714H234.941V53.4286H222ZM224.804 64.8571V62H234.941V64.8571H224.804Z" fill="#F8F8F8"/>
<ellipse cx="436.083" cy="51.5112" rx="52.0833" ry="51.5112" fill="#A3D9D3"/>
<path d="M407.742 134.773V136H399.133V134.773H407.742ZM399.375 134.773V138.797H397.883L397.875 134.773H399.375ZM409.055 134.773L409.039 138.789H407.547V134.773H409.055ZM406.266 124.625V125.859H401.281V124.625H406.266ZM407.562 124.625V136H406.062V124.625H407.562ZM400.766 124.625H402.273L402.039 129.203C402.008 129.891 401.943 130.526 401.844 131.109C401.745 131.688 401.622 132.216 401.477 132.695C401.331 133.174 401.164 133.604 400.977 133.984C400.789 134.359 400.589 134.685 400.375 134.961C400.161 135.232 399.938 135.456 399.703 135.633C399.474 135.805 399.242 135.927 399.008 136H398.32V134.773H398.805C398.94 134.628 399.094 134.417 399.266 134.141C399.443 133.865 399.617 133.508 399.789 133.07C399.966 132.628 400.12 132.089 400.25 131.453C400.385 130.818 400.477 130.068 400.523 129.203L400.766 124.625ZM410.227 131.867V131.688C410.227 131.078 410.315 130.513 410.492 129.992C410.669 129.466 410.924 129.01 411.258 128.625C411.591 128.234 411.995 127.932 412.469 127.719C412.943 127.5 413.474 127.391 414.062 127.391C414.656 127.391 415.19 127.5 415.664 127.719C416.143 127.932 416.549 128.234 416.883 128.625C417.221 129.01 417.479 129.466 417.656 129.992C417.833 130.513 417.922 131.078 417.922 131.688V131.867C417.922 132.477 417.833 133.042 417.656 133.562C417.479 134.083 417.221 134.539 416.883 134.93C416.549 135.315 416.146 135.617 415.672 135.836C415.203 136.049 414.672 136.156 414.078 136.156C413.484 136.156 412.951 136.049 412.477 135.836C412.003 135.617 411.596 135.315 411.258 134.93C410.924 134.539 410.669 134.083 410.492 133.562C410.315 133.042 410.227 132.477 410.227 131.867ZM411.672 131.688V131.867C411.672 132.289 411.721 132.688 411.82 133.062C411.919 133.432 412.068 133.76 412.266 134.047C412.469 134.333 412.721 134.56 413.023 134.727C413.326 134.888 413.677 134.969 414.078 134.969C414.474 134.969 414.82 134.888 415.117 134.727C415.419 134.56 415.669 134.333 415.867 134.047C416.065 133.76 416.214 133.432 416.312 133.062C416.417 132.688 416.469 132.289 416.469 131.867V131.688C416.469 131.271 416.417 130.878 416.312 130.508C416.214 130.133 416.062 129.802 415.859 129.516C415.661 129.224 415.411 128.995 415.109 128.828C414.812 128.661 414.464 128.578 414.062 128.578C413.667 128.578 413.318 128.661 413.016 128.828C412.719 128.995 412.469 129.224 412.266 129.516C412.068 129.802 411.919 130.133 411.82 130.508C411.721 130.878 411.672 131.271 411.672 131.688ZM423.117 134.969C423.461 134.969 423.779 134.898 424.07 134.758C424.362 134.617 424.602 134.424 424.789 134.18C424.977 133.93 425.083 133.646 425.109 133.328H426.484C426.458 133.828 426.289 134.294 425.977 134.727C425.669 135.154 425.266 135.5 424.766 135.766C424.266 136.026 423.716 136.156 423.117 136.156C422.482 136.156 421.927 136.044 421.453 135.82C420.984 135.596 420.594 135.289 420.281 134.898C419.974 134.508 419.742 134.06 419.586 133.555C419.435 133.044 419.359 132.505 419.359 131.938V131.609C419.359 131.042 419.435 130.505 419.586 130C419.742 129.49 419.974 129.039 420.281 128.648C420.594 128.258 420.984 127.951 421.453 127.727C421.927 127.503 422.482 127.391 423.117 127.391C423.779 127.391 424.357 127.526 424.852 127.797C425.346 128.062 425.734 128.427 426.016 128.891C426.302 129.349 426.458 129.87 426.484 130.453H425.109C425.083 130.104 424.984 129.789 424.812 129.508C424.646 129.227 424.417 129.003 424.125 128.836C423.839 128.664 423.503 128.578 423.117 128.578C422.674 128.578 422.302 128.667 422 128.844C421.703 129.016 421.466 129.25 421.289 129.547C421.117 129.839 420.992 130.164 420.914 130.523C420.841 130.878 420.805 131.24 420.805 131.609V131.938C420.805 132.307 420.841 132.672 420.914 133.031C420.987 133.391 421.109 133.716 421.281 134.008C421.458 134.299 421.695 134.534 421.992 134.711C422.294 134.883 422.669 134.969 423.117 134.969ZM431.555 127.547V136H430.102V127.547H431.555ZM434.391 127.547V128.719H427.32V127.547H434.391ZM438.281 135.125L440.633 127.547H442.18L438.789 137.305C438.711 137.513 438.607 137.737 438.477 137.977C438.352 138.221 438.19 138.453 437.992 138.672C437.794 138.891 437.555 139.068 437.273 139.203C436.997 139.344 436.667 139.414 436.281 139.414C436.167 139.414 436.021 139.398 435.844 139.367C435.667 139.336 435.542 139.31 435.469 139.289L435.461 138.117C435.503 138.122 435.568 138.128 435.656 138.133C435.75 138.143 435.815 138.148 435.852 138.148C436.18 138.148 436.458 138.104 436.688 138.016C436.917 137.932 437.109 137.789 437.266 137.586C437.427 137.388 437.565 137.115 437.68 136.766L438.281 135.125ZM436.555 127.547L438.75 134.109L439.125 135.633L438.086 136.164L434.977 127.547H436.555ZM449.117 127.547V128.742H444.844V127.547H449.117ZM445.055 127.547V136H443.609V127.547H445.055ZM450.398 127.547V136H448.945V127.547H450.398ZM458.453 131.211V132.383H453.984V131.211H458.453ZM454.289 127.547V136H452.844V127.547H454.289ZM459.625 127.547V136H458.172V127.547H459.625ZM466.938 134.555V130.203C466.938 129.87 466.87 129.581 466.734 129.336C466.604 129.086 466.406 128.893 466.141 128.758C465.875 128.622 465.547 128.555 465.156 128.555C464.792 128.555 464.471 128.617 464.195 128.742C463.924 128.867 463.711 129.031 463.555 129.234C463.404 129.438 463.328 129.656 463.328 129.891H461.883C461.883 129.589 461.961 129.289 462.117 128.992C462.273 128.695 462.497 128.427 462.789 128.188C463.086 127.943 463.44 127.75 463.852 127.609C464.268 127.464 464.732 127.391 465.242 127.391C465.857 127.391 466.398 127.495 466.867 127.703C467.341 127.911 467.711 128.227 467.977 128.648C468.247 129.065 468.383 129.589 468.383 130.219V134.156C468.383 134.438 468.406 134.737 468.453 135.055C468.505 135.372 468.581 135.646 468.68 135.875V136H467.172C467.099 135.833 467.042 135.612 467 135.336C466.958 135.055 466.938 134.794 466.938 134.555ZM467.188 130.875L467.203 131.891H465.742C465.331 131.891 464.964 131.924 464.641 131.992C464.318 132.055 464.047 132.151 463.828 132.281C463.609 132.411 463.443 132.576 463.328 132.773C463.214 132.966 463.156 133.193 463.156 133.453C463.156 133.719 463.216 133.961 463.336 134.18C463.456 134.398 463.635 134.573 463.875 134.703C464.12 134.828 464.419 134.891 464.773 134.891C465.216 134.891 465.607 134.797 465.945 134.609C466.284 134.422 466.552 134.193 466.75 133.922C466.953 133.651 467.062 133.388 467.078 133.133L467.695 133.828C467.659 134.047 467.56 134.289 467.398 134.555C467.237 134.82 467.021 135.076 466.75 135.32C466.484 135.56 466.167 135.76 465.797 135.922C465.432 136.078 465.021 136.156 464.562 136.156C463.99 136.156 463.487 136.044 463.055 135.82C462.628 135.596 462.294 135.297 462.055 134.922C461.82 134.542 461.703 134.117 461.703 133.648C461.703 133.195 461.792 132.797 461.969 132.453C462.146 132.104 462.401 131.815 462.734 131.586C463.068 131.352 463.469 131.174 463.938 131.055C464.406 130.935 464.93 130.875 465.508 130.875H467.188ZM421.07 155V146.547H422.516V153.812H426.406V146.547H427.859V155H421.07ZM428.859 153.812L428.719 157.508H427.43V155H426.328V153.812H428.859ZM432 146.547V155H430.547V146.547H432ZM430.438 144.305C430.438 144.07 430.508 143.872 430.648 143.711C430.794 143.549 431.008 143.469 431.289 143.469C431.565 143.469 431.776 143.549 431.922 143.711C432.073 143.872 432.148 144.07 432.148 144.305C432.148 144.529 432.073 144.721 431.922 144.883C431.776 145.039 431.565 145.117 431.289 145.117C431.008 145.117 430.794 145.039 430.648 144.883C430.508 144.721 430.438 144.529 430.438 144.305ZM440.055 150.211V151.383H435.586V150.211H440.055ZM435.891 146.547V155H434.445V146.547H435.891ZM441.227 146.547V155H439.773V146.547H441.227ZM448.539 153.555V149.203C448.539 148.87 448.471 148.581 448.336 148.336C448.206 148.086 448.008 147.893 447.742 147.758C447.477 147.622 447.148 147.555 446.758 147.555C446.393 147.555 446.073 147.617 445.797 147.742C445.526 147.867 445.312 148.031 445.156 148.234C445.005 148.438 444.93 148.656 444.93 148.891H443.484C443.484 148.589 443.562 148.289 443.719 147.992C443.875 147.695 444.099 147.427 444.391 147.188C444.688 146.943 445.042 146.75 445.453 146.609C445.87 146.464 446.333 146.391 446.844 146.391C447.458 146.391 448 146.495 448.469 146.703C448.943 146.911 449.312 147.227 449.578 147.648C449.849 148.065 449.984 148.589 449.984 149.219V153.156C449.984 153.438 450.008 153.737 450.055 154.055C450.107 154.372 450.182 154.646 450.281 154.875V155H448.773C448.701 154.833 448.643 154.612 448.602 154.336C448.56 154.055 448.539 153.794 448.539 153.555ZM448.789 149.875L448.805 150.891H447.344C446.932 150.891 446.565 150.924 446.242 150.992C445.919 151.055 445.648 151.151 445.43 151.281C445.211 151.411 445.044 151.576 444.93 151.773C444.815 151.966 444.758 152.193 444.758 152.453C444.758 152.719 444.818 152.961 444.938 153.18C445.057 153.398 445.237 153.573 445.477 153.703C445.721 153.828 446.021 153.891 446.375 153.891C446.818 153.891 447.208 153.797 447.547 153.609C447.885 153.422 448.154 153.193 448.352 152.922C448.555 152.651 448.664 152.388 448.68 152.133L449.297 152.828C449.26 153.047 449.161 153.289 449 153.555C448.839 153.82 448.622 154.076 448.352 154.32C448.086 154.56 447.768 154.76 447.398 154.922C447.034 155.078 446.622 155.156 446.164 155.156C445.591 155.156 445.089 155.044 444.656 154.82C444.229 154.596 443.896 154.297 443.656 153.922C443.422 153.542 443.305 153.117 443.305 152.648C443.305 152.195 443.393 151.797 443.57 151.453C443.747 151.104 444.003 150.815 444.336 150.586C444.669 150.352 445.07 150.174 445.539 150.055C446.008 149.935 446.531 149.875 447.109 149.875H448.789Z" fill="#0D0D0D"/>
<path d="M419.573 59.7231V56.7483H412V53.7734H427.146V44.849H414.33C413.67 44.849 413.116 44.6297 412.67 44.1911C412.223 43.7525 412 43.209 412 42.5607V32.2631C412 31.6148 412.223 31.0713 412.67 30.6327C413.116 30.1941 413.67 29.9748 414.33 29.9748H419.573V27H422.602V29.9748H430.175V32.9497H415.029V41.8741H427.845C428.505 41.8741 429.058 42.0934 429.505 42.532C429.951 42.9706 430.175 43.5141 430.175 44.1624V54.46C430.175 55.1083 429.951 55.6518 429.505 56.0904C429.058 56.529 428.505 56.7483 427.845 56.7483H422.602V59.7231H419.573ZM440.625 77L429.849 66.4165L431.992 64.3112L440.625 72.7894L457.856 55.8673L460 57.9726L440.625 77Z" fill="#F8F8F8"/>
</svg>
