<svg width="560" height="100" viewBox="0 0 560 100" fill="none" xmlns="http://www.w3.org/2000/svg">
<circle cx="165" cy="35" r="34" stroke="#75B5B0" stroke-width="2"/>
<path d="M136.375 84.625H137.891V94.7734H141.797V84.625H143.297V94.7734H147.18V84.625H148.688V96H136.375V84.625ZM155.133 92.2812H152.359L152.344 91.125H154.609C155.057 91.125 155.43 91.0807 155.727 90.9922C156.029 90.9036 156.255 90.7708 156.406 90.5938C156.557 90.4167 156.633 90.1979 156.633 89.9375C156.633 89.7344 156.589 89.5573 156.5 89.4062C156.417 89.25 156.289 89.1224 156.117 89.0234C155.945 88.9193 155.732 88.8438 155.477 88.7969C155.227 88.7448 154.932 88.7188 154.594 88.7188H152.742V96H151.297V87.5469H154.594C155.13 87.5469 155.612 87.5938 156.039 87.6875C156.471 87.7812 156.839 87.9245 157.141 88.1172C157.448 88.3047 157.682 88.5443 157.844 88.8359C158.005 89.1276 158.086 89.4714 158.086 89.8672C158.086 90.1224 158.034 90.3646 157.93 90.5938C157.826 90.8229 157.672 91.026 157.469 91.2031C157.266 91.3802 157.016 91.526 156.719 91.6406C156.422 91.75 156.081 91.8203 155.695 91.8516L155.133 92.2812ZM155.133 96H151.836L152.555 94.8281H155.133C155.534 94.8281 155.867 94.7786 156.133 94.6797C156.398 94.5755 156.596 94.4297 156.727 94.2422C156.862 94.0495 156.93 93.8203 156.93 93.5547C156.93 93.2891 156.862 93.0625 156.727 92.875C156.596 92.6823 156.398 92.5365 156.133 92.4375C155.867 92.3333 155.534 92.2812 155.133 92.2812H152.938L152.953 91.125H155.695L156.219 91.5625C156.682 91.599 157.076 91.7135 157.398 91.9062C157.721 92.099 157.966 92.3438 158.133 92.6406C158.299 92.9323 158.383 93.25 158.383 93.5938C158.383 93.9896 158.307 94.3385 158.156 94.6406C158.01 94.9427 157.797 95.1953 157.516 95.3984C157.234 95.5964 156.893 95.7474 156.492 95.8516C156.091 95.9505 155.638 96 155.133 96ZM161.883 93.7109L165.781 87.5469H167.234V96H165.781V89.8359L161.883 96H160.445V87.5469H161.883V93.7109ZM171.078 87.5469H172.523L172.398 90.7109C172.367 91.513 172.276 92.2057 172.125 92.7891C171.974 93.3724 171.781 93.8698 171.547 94.2812C171.312 94.6875 171.049 95.0286 170.758 95.3047C170.471 95.5807 170.174 95.8125 169.867 96H169.148L169.188 94.8203L169.484 94.8125C169.656 94.6094 169.823 94.401 169.984 94.1875C170.146 93.9688 170.294 93.7109 170.43 93.4141C170.565 93.112 170.677 92.7448 170.766 92.3125C170.859 91.875 170.919 91.3411 170.945 90.7109L171.078 87.5469ZM171.438 87.5469H176.523V96H175.078V88.8828H171.438V87.5469ZM168.82 94.8125H177.609V98.4922H176.164V96H170.266V98.4922H168.812L168.82 94.8125ZM180.781 87.5469V96H179.336V87.5469H180.781ZM186.328 87.5469L182.32 92.3906H180.297L180.078 91.125H181.734L184.57 87.5469H186.328ZM184.773 96L181.664 92.1719L182.594 91.125L186.609 96H184.773ZM187.312 91.8672V91.6875C187.312 91.0781 187.401 90.513 187.578 89.9922C187.755 89.4661 188.01 89.0104 188.344 88.625C188.677 88.2344 189.081 87.9323 189.555 87.7188C190.029 87.5 190.56 87.3906 191.148 87.3906C191.742 87.3906 192.276 87.5 192.75 87.7188C193.229 87.9323 193.635 88.2344 193.969 88.625C194.307 89.0104 194.565 89.4661 194.742 89.9922C194.919 90.513 195.008 91.0781 195.008 91.6875V91.8672C195.008 92.4766 194.919 93.0417 194.742 93.5625C194.565 94.0833 194.307 94.5391 193.969 94.9297C193.635 95.3151 193.232 95.6172 192.758 95.8359C192.289 96.0495 191.758 96.1562 191.164 96.1562C190.57 96.1562 190.036 96.0495 189.562 95.8359C189.089 95.6172 188.682 95.3151 188.344 94.9297C188.01 94.5391 187.755 94.0833 187.578 93.5625C187.401 93.0417 187.312 92.4766 187.312 91.8672ZM188.758 91.6875V91.8672C188.758 92.2891 188.807 92.6875 188.906 93.0625C189.005 93.4323 189.154 93.7604 189.352 94.0469C189.555 94.3333 189.807 94.5599 190.109 94.7266C190.411 94.888 190.763 94.9688 191.164 94.9688C191.56 94.9688 191.906 94.888 192.203 94.7266C192.505 94.5599 192.755 94.3333 192.953 94.0469C193.151 93.7604 193.299 93.4323 193.398 93.0625C193.503 92.6875 193.555 92.2891 193.555 91.8672V91.6875C193.555 91.2708 193.503 90.8776 193.398 90.5078C193.299 90.1328 193.148 89.8021 192.945 89.5156C192.747 89.224 192.497 88.9948 192.195 88.8281C191.898 88.6615 191.549 88.5781 191.148 88.5781C190.753 88.5781 190.404 88.6615 190.102 88.8281C189.805 88.9948 189.555 89.224 189.352 89.5156C189.154 89.8021 189.005 90.1328 188.906 90.5078C188.807 90.8776 188.758 91.2708 188.758 91.6875Z" fill="#0D0D0D"/>
<path d="M170.04 46.3333C166.779 46.3333 164.017 45.2018 161.754 42.9387C159.491 40.6756 158.359 37.9136 158.359 34.6528C158.359 31.4163 159.491 28.6651 161.754 26.399C164.017 24.133 166.779 23 170.04 23C173.276 23 176.027 24.133 178.293 26.399C180.559 28.6651 181.692 31.4163 181.692 34.6528C181.692 37.9136 180.559 40.6756 178.293 42.9387C176.027 45.2018 173.276 46.3333 170.04 46.3333ZM170.026 44.6667C172.803 44.6667 175.165 43.6944 177.109 41.75C179.053 39.8056 180.026 37.4444 180.026 34.6667C180.026 31.8889 179.053 29.5278 177.109 27.5833C175.165 25.6389 172.803 24.6667 170.026 24.6667C167.248 24.6667 164.887 25.6389 162.942 27.5833C160.998 29.5278 160.026 31.8889 160.026 34.6667C160.026 37.4444 160.998 39.8056 162.942 41.75C164.887 43.6944 167.248 44.6667 170.026 44.6667ZM174.138 40.0096L175.327 38.8205L170.859 34.3525V28.5128H169.192V35.0225L174.138 40.0096ZM150.667 28.8333V27.1667H156.692V28.8333H150.667ZM149 35.5V33.8333H156.692V35.5H149ZM150.667 42.1667V40.5H156.692V42.1667H150.667Z" fill="#0D0D0D"/>
<circle cx="279" cy="35" r="34" stroke="#75B5B0" stroke-width="2"/>
<path d="M253.266 94.7734V96H244.656V94.7734H253.266ZM244.898 94.7734V98.7969H243.406L243.398 94.7734H244.898ZM254.578 94.7734L254.562 98.7891H253.07V94.7734H254.578ZM251.789 84.625V85.8594H246.805V84.625H251.789ZM253.086 84.625V96H251.586V84.625H253.086ZM246.289 84.625H247.797L247.562 89.2031C247.531 89.8906 247.466 90.526 247.367 91.1094C247.268 91.6875 247.146 92.2161 247 92.6953C246.854 93.1745 246.688 93.6042 246.5 93.9844C246.312 94.3594 246.112 94.6849 245.898 94.9609C245.685 95.2318 245.461 95.4557 245.227 95.6328C244.997 95.8047 244.766 95.9271 244.531 96H243.844V94.7734H244.328C244.464 94.6276 244.617 94.4167 244.789 94.1406C244.966 93.8646 245.141 93.5078 245.312 93.0703C245.49 92.6276 245.643 92.0885 245.773 91.4531C245.909 90.8177 246 90.0677 246.047 89.2031L246.289 84.625ZM255.75 91.8672V91.6875C255.75 91.0781 255.839 90.513 256.016 89.9922C256.193 89.4661 256.448 89.0104 256.781 88.625C257.115 88.2344 257.518 87.9323 257.992 87.7188C258.466 87.5 258.997 87.3906 259.586 87.3906C260.18 87.3906 260.714 87.5 261.188 87.7188C261.667 87.9323 262.073 88.2344 262.406 88.625C262.745 89.0104 263.003 89.4661 263.18 89.9922C263.357 90.513 263.445 91.0781 263.445 91.6875V91.8672C263.445 92.4766 263.357 93.0417 263.18 93.5625C263.003 94.0833 262.745 94.5391 262.406 94.9297C262.073 95.3151 261.669 95.6172 261.195 95.8359C260.727 96.0495 260.195 96.1562 259.602 96.1562C259.008 96.1562 258.474 96.0495 258 95.8359C257.526 95.6172 257.12 95.3151 256.781 94.9297C256.448 94.5391 256.193 94.0833 256.016 93.5625C255.839 93.0417 255.75 92.4766 255.75 91.8672ZM257.195 91.6875V91.8672C257.195 92.2891 257.245 92.6875 257.344 93.0625C257.443 93.4323 257.591 93.7604 257.789 94.0469C257.992 94.3333 258.245 94.5599 258.547 94.7266C258.849 94.888 259.201 94.9688 259.602 94.9688C259.997 94.9688 260.344 94.888 260.641 94.7266C260.943 94.5599 261.193 94.3333 261.391 94.0469C261.589 93.7604 261.737 93.4323 261.836 93.0625C261.94 92.6875 261.992 92.2891 261.992 91.8672V91.6875C261.992 91.2708 261.94 90.8776 261.836 90.5078C261.737 90.1328 261.586 89.8021 261.383 89.5156C261.185 89.224 260.935 88.9948 260.633 88.8281C260.336 88.6615 259.987 88.5781 259.586 88.5781C259.19 88.5781 258.841 88.6615 258.539 88.8281C258.242 88.9948 257.992 89.224 257.789 89.5156C257.591 89.8021 257.443 90.1328 257.344 90.5078C257.245 90.8776 257.195 91.2708 257.195 91.6875ZM268.641 94.9688C268.984 94.9688 269.302 94.8984 269.594 94.7578C269.885 94.6172 270.125 94.4245 270.312 94.1797C270.5 93.9297 270.607 93.6458 270.633 93.3281H272.008C271.982 93.8281 271.812 94.2943 271.5 94.7266C271.193 95.1536 270.789 95.5 270.289 95.7656C269.789 96.026 269.24 96.1562 268.641 96.1562C268.005 96.1562 267.451 96.0443 266.977 95.8203C266.508 95.5964 266.117 95.2891 265.805 94.8984C265.497 94.5078 265.266 94.0599 265.109 93.5547C264.958 93.0443 264.883 92.5052 264.883 91.9375V91.6094C264.883 91.0417 264.958 90.5052 265.109 90C265.266 89.4896 265.497 89.0391 265.805 88.6484C266.117 88.2578 266.508 87.9505 266.977 87.7266C267.451 87.5026 268.005 87.3906 268.641 87.3906C269.302 87.3906 269.88 87.526 270.375 87.7969C270.87 88.0625 271.258 88.4271 271.539 88.8906C271.826 89.349 271.982 89.8698 272.008 90.4531H270.633C270.607 90.1042 270.508 89.7891 270.336 89.5078C270.169 89.2266 269.94 89.0026 269.648 88.8359C269.362 88.6641 269.026 88.5781 268.641 88.5781C268.198 88.5781 267.826 88.6667 267.523 88.8438C267.227 89.0156 266.99 89.25 266.812 89.5469C266.641 89.8385 266.516 90.1641 266.438 90.5234C266.365 90.8776 266.328 91.2396 266.328 91.6094V91.9375C266.328 92.3073 266.365 92.6719 266.438 93.0312C266.51 93.3906 266.633 93.7161 266.805 94.0078C266.982 94.2995 267.219 94.5339 267.516 94.7109C267.818 94.8828 268.193 94.9688 268.641 94.9688ZM277.078 87.5469V96H275.625V87.5469H277.078ZM279.914 87.5469V88.7188H272.844V87.5469H279.914ZM283.805 95.125L286.156 87.5469H287.703L284.312 97.3047C284.234 97.513 284.13 97.737 284 97.9766C283.875 98.2214 283.714 98.4531 283.516 98.6719C283.318 98.8906 283.078 99.0677 282.797 99.2031C282.521 99.3438 282.19 99.4141 281.805 99.4141C281.69 99.4141 281.544 99.3984 281.367 99.3672C281.19 99.3359 281.065 99.3099 280.992 99.2891L280.984 98.1172C281.026 98.1224 281.091 98.1276 281.18 98.1328C281.273 98.1432 281.339 98.1484 281.375 98.1484C281.703 98.1484 281.982 98.1042 282.211 98.0156C282.44 97.9323 282.633 97.7891 282.789 97.5859C282.951 97.388 283.089 97.1146 283.203 96.7656L283.805 95.125ZM282.078 87.5469L284.273 94.1094L284.648 95.6328L283.609 96.1641L280.5 87.5469H282.078ZM294.641 87.5469V88.7422H290.367V87.5469H294.641ZM290.578 87.5469V96H289.133V87.5469H290.578ZM295.922 87.5469V96H294.469V87.5469H295.922ZM303.977 91.2109V92.3828H299.508V91.2109H303.977ZM299.812 87.5469V96H298.367V87.5469H299.812ZM305.148 87.5469V96H303.695V87.5469H305.148ZM307.094 91.8672V91.6875C307.094 91.0781 307.182 90.513 307.359 89.9922C307.536 89.4661 307.792 89.0104 308.125 88.625C308.458 88.2344 308.862 87.9323 309.336 87.7188C309.81 87.5 310.341 87.3906 310.93 87.3906C311.523 87.3906 312.057 87.5 312.531 87.7188C313.01 87.9323 313.417 88.2344 313.75 88.625C314.089 89.0104 314.346 89.4661 314.523 89.9922C314.701 90.513 314.789 91.0781 314.789 91.6875V91.8672C314.789 92.4766 314.701 93.0417 314.523 93.5625C314.346 94.0833 314.089 94.5391 313.75 94.9297C313.417 95.3151 313.013 95.6172 312.539 95.8359C312.07 96.0495 311.539 96.1562 310.945 96.1562C310.352 96.1562 309.818 96.0495 309.344 95.8359C308.87 95.6172 308.464 95.3151 308.125 94.9297C307.792 94.5391 307.536 94.0833 307.359 93.5625C307.182 93.0417 307.094 92.4766 307.094 91.8672ZM308.539 91.6875V91.8672C308.539 92.2891 308.589 92.6875 308.688 93.0625C308.786 93.4323 308.935 93.7604 309.133 94.0469C309.336 94.3333 309.589 94.5599 309.891 94.7266C310.193 94.888 310.544 94.9688 310.945 94.9688C311.341 94.9688 311.688 94.888 311.984 94.7266C312.286 94.5599 312.536 94.3333 312.734 94.0469C312.932 93.7604 313.081 93.4323 313.18 93.0625C313.284 92.6875 313.336 92.2891 313.336 91.8672V91.6875C313.336 91.2708 313.284 90.8776 313.18 90.5078C313.081 90.1328 312.93 89.8021 312.727 89.5156C312.529 89.224 312.279 88.9948 311.977 88.8281C311.68 88.6615 311.331 88.5781 310.93 88.5781C310.534 88.5781 310.185 88.6615 309.883 88.8281C309.586 88.9948 309.336 89.224 309.133 89.5156C308.935 89.8021 308.786 90.1328 308.688 90.5078C308.589 90.8776 308.539 91.2708 308.539 91.6875Z" fill="#0D0D0D"/>
<path d="M270.167 39.3333V37.6667H266V36H274.333V31H267.282C266.919 31 266.614 30.8771 266.369 30.6314C266.123 30.3857 266 30.0812 266 29.718V23.9487C266 23.5855 266.123 23.281 266.369 23.0353C266.614 22.7895 266.919 22.6667 267.282 22.6667H270.167V21H271.833V22.6667H276V24.3333H267.667V29.3333H274.718C275.081 29.3333 275.386 29.4562 275.631 29.7019C275.877 29.9476 276 30.2521 276 30.6154V36.3846C276 36.7479 275.877 37.0524 275.631 37.2981C275.386 37.5438 275.081 37.6667 274.718 37.6667H271.833V39.3333H270.167ZM281.75 49.0128L275.82 43.0833L277 41.9038L281.75 46.6538L291.231 37.1731L292.41 38.3526L281.75 49.0128Z" fill="#0D0D0D"/>
<circle cx="395" cy="35" r="34" stroke="#75B5B0" stroke-width="2"/>
<path d="M377.633 91.5703H374.438L373.695 91.2656C372.872 91.0052 372.24 90.6068 371.797 90.0703C371.354 89.5286 371.133 88.8568 371.133 88.0547C371.133 87.3203 371.294 86.6979 371.617 86.1875C371.945 85.6771 372.409 85.2891 373.008 85.0234C373.612 84.7578 374.326 84.625 375.148 84.625H378.789V96H377.281V85.8594H375.148C374.315 85.8594 373.688 86.0573 373.266 86.4531C372.849 86.849 372.641 87.3828 372.641 88.0547C372.641 88.4922 372.732 88.8828 372.914 89.2266C373.102 89.5703 373.378 89.8411 373.742 90.0391C374.107 90.237 374.56 90.3359 375.102 90.3359H377.641L377.633 91.5703ZM375.07 90.7891L372.305 96H370.703L373.547 90.7891H375.07ZM382.859 87.5469V96H381.414V87.5469H382.859ZM388.406 87.5469L384.398 92.3906H382.375L382.156 91.125H383.812L386.648 87.5469H388.406ZM386.852 96L383.742 92.1719L384.672 91.125L388.688 96H386.852ZM391.516 87.5469V96H390.062V87.5469H391.516ZM389.953 85.3047C389.953 85.0703 390.023 84.8724 390.164 84.7109C390.31 84.5495 390.523 84.4688 390.805 84.4688C391.081 84.4688 391.292 84.5495 391.438 84.7109C391.589 84.8724 391.664 85.0703 391.664 85.3047C391.664 85.5286 391.589 85.7214 391.438 85.8828C391.292 86.0391 391.081 86.1172 390.805 86.1172C390.523 86.1172 390.31 86.0391 390.164 85.8828C390.023 85.7214 389.953 85.5286 389.953 85.3047ZM397.219 94.9688C397.562 94.9688 397.88 94.8984 398.172 94.7578C398.464 94.6172 398.703 94.4245 398.891 94.1797C399.078 93.9297 399.185 93.6458 399.211 93.3281H400.586C400.56 93.8281 400.391 94.2943 400.078 94.7266C399.771 95.1536 399.367 95.5 398.867 95.7656C398.367 96.026 397.818 96.1562 397.219 96.1562C396.583 96.1562 396.029 96.0443 395.555 95.8203C395.086 95.5964 394.695 95.2891 394.383 94.8984C394.076 94.5078 393.844 94.0599 393.688 93.5547C393.536 93.0443 393.461 92.5052 393.461 91.9375V91.6094C393.461 91.0417 393.536 90.5052 393.688 90C393.844 89.4896 394.076 89.0391 394.383 88.6484C394.695 88.2578 395.086 87.9505 395.555 87.7266C396.029 87.5026 396.583 87.3906 397.219 87.3906C397.88 87.3906 398.458 87.526 398.953 87.7969C399.448 88.0625 399.836 88.4271 400.117 88.8906C400.404 89.349 400.56 89.8698 400.586 90.4531H399.211C399.185 90.1042 399.086 89.7891 398.914 89.5078C398.747 89.2266 398.518 89.0026 398.227 88.8359C397.94 88.6641 397.604 88.5781 397.219 88.5781C396.776 88.5781 396.404 88.6667 396.102 88.8438C395.805 89.0156 395.568 89.25 395.391 89.5469C395.219 89.8385 395.094 90.1641 395.016 90.5234C394.943 90.8776 394.906 91.2396 394.906 91.6094V91.9375C394.906 92.3073 394.943 92.6719 395.016 93.0312C395.089 93.3906 395.211 93.7161 395.383 94.0078C395.56 94.2995 395.797 94.5339 396.094 94.7109C396.396 94.8828 396.771 94.9688 397.219 94.9688ZM407.945 91.2109V92.3828H403.477V91.2109H407.945ZM403.781 87.5469V96H402.336V87.5469H403.781ZM409.117 87.5469V96H407.664V87.5469H409.117ZM411.062 91.8672V91.6875C411.062 91.0781 411.151 90.513 411.328 89.9922C411.505 89.4661 411.76 89.0104 412.094 88.625C412.427 88.2344 412.831 87.9323 413.305 87.7188C413.779 87.5 414.31 87.3906 414.898 87.3906C415.492 87.3906 416.026 87.5 416.5 87.7188C416.979 87.9323 417.385 88.2344 417.719 88.625C418.057 89.0104 418.315 89.4661 418.492 89.9922C418.669 90.513 418.758 91.0781 418.758 91.6875V91.8672C418.758 92.4766 418.669 93.0417 418.492 93.5625C418.315 94.0833 418.057 94.5391 417.719 94.9297C417.385 95.3151 416.982 95.6172 416.508 95.8359C416.039 96.0495 415.508 96.1562 414.914 96.1562C414.32 96.1562 413.786 96.0495 413.312 95.8359C412.839 95.6172 412.432 95.3151 412.094 94.9297C411.76 94.5391 411.505 94.0833 411.328 93.5625C411.151 93.0417 411.062 92.4766 411.062 91.8672ZM412.508 91.6875V91.8672C412.508 92.2891 412.557 92.6875 412.656 93.0625C412.755 93.4323 412.904 93.7604 413.102 94.0469C413.305 94.3333 413.557 94.5599 413.859 94.7266C414.161 94.888 414.513 94.9688 414.914 94.9688C415.31 94.9688 415.656 94.888 415.953 94.7266C416.255 94.5599 416.505 94.3333 416.703 94.0469C416.901 93.7604 417.049 93.4323 417.148 93.0625C417.253 92.6875 417.305 92.2891 417.305 91.8672V91.6875C417.305 91.2708 417.253 90.8776 417.148 90.5078C417.049 90.1328 416.898 89.8021 416.695 89.5156C416.497 89.224 416.247 88.9948 415.945 88.8281C415.648 88.6615 415.299 88.5781 414.898 88.5781C414.503 88.5781 414.154 88.6615 413.852 88.8281C413.555 88.9948 413.305 89.224 413.102 89.5156C412.904 89.8021 412.755 90.1328 412.656 90.5078C412.557 90.8776 412.508 91.2708 412.508 91.6875Z" fill="#0D0D0D"/>
<path d="M386.263 43.702L378 35.4391L379.189 34.2596L386.272 41.343L387.426 40.1891L388.606 41.3686L386.263 43.702ZM395.679 43.702L387.417 35.4391L388.596 34.25L395.679 41.3333L411.013 26L412.192 27.1891L395.679 43.702ZM394.526 35.4391L393.337 34.2596L401.587 26.0096L402.776 27.1891L394.526 35.4391Z" fill="#0D0D0D"/>
<rect y="37" width="104" height="2" rx="1" fill="#75B5B0"/>
<rect x="456" y="37" width="104" height="2" rx="1" fill="#75B5B0"/>
</svg>
