<svg width="166" height="41" viewBox="0 0 166 41" fill="none" xmlns="http://www.w3.org/2000/svg">
<path d="M1.15625 38.0822C0.844953 37.9488 0.607773 37.7561 0.415064 37.4893C0.222355 37.2225 0.103762 36.9111 0.0592908 36.5554H1.00802C1.05249 36.8222 1.1859 37.0297 1.40825 37.178C1.63061 37.3262 1.89744 37.4003 2.23839 37.4003C2.60898 37.4003 2.89064 37.3262 3.09817 37.1632C3.3057 37.0001 3.40947 36.7777 3.40947 36.4813C3.40947 36.2441 3.32052 36.0662 3.14264 35.9328C2.96475 35.7994 2.71275 35.7401 2.38663 35.7401H1.58614V34.8507H2.38663C2.65346 34.8507 2.84617 34.7765 2.9944 34.6283C3.14264 34.4801 3.20193 34.2873 3.20193 34.0205C3.20193 33.7389 3.11299 33.5313 2.93511 33.3979C2.75722 33.2645 2.50522 33.1756 2.16427 33.1756C1.85297 33.1756 1.58614 33.2497 1.37861 33.3979C1.17108 33.5462 1.02284 33.7537 0.948721 34.0205H0C0.103766 33.472 0.355767 33.0421 0.726362 32.7457C1.09696 32.4492 1.58614 32.2861 2.16427 32.2861C2.80169 32.2861 3.3057 32.4195 3.66147 32.7012C4.01724 32.9828 4.19512 33.3534 4.19512 33.8574C4.19512 34.1836 4.10618 34.4652 3.94312 34.7024C3.78006 34.9396 3.54288 35.1027 3.2464 35.2212C3.617 35.2657 3.88383 35.414 4.09136 35.6363C4.29889 35.8587 4.38784 36.1551 4.38784 36.5257C4.38784 37.1039 4.19512 37.5337 3.82453 37.845C3.45394 38.1563 2.90546 38.3046 2.20874 38.3046C1.8085 38.3046 1.45273 38.2305 1.14143 38.097L1.15625 38.0822Z" fill="#75B5B0"/>
<path d="M6.72987 37.8302C6.35928 37.5189 6.1814 37.0742 6.1814 36.4813C6.1814 35.8883 6.34446 35.4881 6.68541 35.1916C7.02635 34.8951 7.51554 34.7469 8.15296 34.7469H9.94664L10.0208 35.577H8.15296C7.81201 35.577 7.56001 35.6511 7.38212 35.7994C7.20424 35.9476 7.1153 36.17 7.1153 36.4664C7.1153 36.7777 7.23389 37.0149 7.45624 37.178C7.6786 37.341 8.01954 37.4152 8.44943 37.4152C8.92379 37.4152 9.27957 37.3707 9.53157 37.2669C9.78358 37.1632 9.90217 37.0297 9.90217 36.837L10.0208 37.6227C9.91699 37.7561 9.76875 37.8747 9.60569 37.9785C9.44263 38.0822 9.24992 38.1415 9.04239 38.186C8.83485 38.2305 8.59767 38.2601 8.33084 38.2601C7.63413 38.2601 7.10047 38.1119 6.72987 37.8006V37.8302ZM9.90217 34.5097C9.90217 34.0798 9.78357 33.7537 9.56122 33.5165C9.33886 33.2793 9.01274 33.1607 8.58285 33.1607C8.33084 33.1607 8.07884 33.2052 7.82684 33.2793C7.57483 33.3534 7.3673 33.472 7.17459 33.6203L6.46305 33.1311C6.68541 32.8643 6.98188 32.6567 7.33765 32.5085C7.69342 32.3603 8.09366 32.2861 8.53838 32.2861C9.02756 32.2861 9.44263 32.3751 9.78357 32.5381C10.1245 32.7012 10.3913 32.9532 10.5692 33.2793C10.7471 33.6054 10.8361 33.9909 10.8361 34.4504V38.2008H9.88734V34.5097H9.90217Z" fill="#75B5B0"/>
<path d="M13.1636 32.375H14.1419V38.2007H13.1636V32.375ZM13.7714 32.375H17.5811V33.2941H13.7714V32.375ZM17.0178 32.375H17.9961V38.2007H17.0178V32.375Z" fill="#75B5B0"/>
<path d="M20.3679 32.3753H21.3463V40.5728H20.3679V32.3753ZM21.9096 38.0379C21.6131 37.8749 21.4056 37.6229 21.2722 37.2819L21.3463 36.0664C21.3463 36.3184 21.4056 36.5556 21.5094 36.7483C21.6131 36.941 21.7614 37.1189 21.9689 37.2375C22.1764 37.356 22.3988 37.4153 22.6804 37.4153C23.1103 37.4153 23.4513 37.2819 23.6884 37.0299C23.9256 36.7779 24.0442 36.4073 24.0442 35.933V34.6729C24.0442 34.1838 23.9256 33.8132 23.6884 33.5463C23.4513 33.2795 23.1103 33.1461 22.6804 33.1461C22.4136 33.1461 22.1764 33.2054 21.9689 33.324C21.7614 33.4426 21.6279 33.6056 21.5094 33.7983C21.3908 33.9911 21.3463 34.2282 21.3463 34.4654L21.2277 33.3388C21.4204 32.983 21.6576 32.7162 21.9689 32.5383C22.2802 32.3604 22.636 32.2715 23.0362 32.2715C23.4364 32.2715 23.807 32.3604 24.0887 32.5531C24.3703 32.7458 24.6075 33.0127 24.7558 33.3685C24.904 33.7242 24.9929 34.1541 24.9929 34.6581V35.933C24.9929 36.4221 24.9188 36.852 24.7558 37.2078C24.5927 37.5636 24.3703 37.8304 24.059 38.0083C23.7477 38.1862 23.392 38.2899 22.9621 38.2899C22.5322 38.2899 22.1912 38.201 21.8948 38.0379H21.9096Z" fill="#75B5B0"/>
<path d="M27.4684 37.8302C27.0978 37.5189 26.9199 37.0742 26.9199 36.4813C26.9199 35.8883 27.083 35.4881 27.4239 35.1916C27.7649 34.8951 28.2541 34.7469 28.8915 34.7469H30.6852L30.7593 35.577H28.8915C28.5505 35.577 28.2985 35.6511 28.1207 35.7994C27.9428 35.9476 27.8538 36.17 27.8538 36.4664C27.8538 36.7777 27.9724 37.0149 28.1948 37.178C28.4171 37.341 28.7581 37.4152 29.188 37.4152C29.6623 37.4152 30.0181 37.3707 30.2701 37.2669C30.5221 37.1632 30.6407 37.0297 30.6407 36.837L30.7593 37.6227C30.6555 37.7561 30.5073 37.8747 30.3442 37.9785C30.1812 38.0822 29.9884 38.1415 29.7809 38.186C29.5734 38.2305 29.3362 38.2601 29.0694 38.2601C28.3727 38.2601 27.839 38.1119 27.4684 37.8006V37.8302ZM30.6407 34.5097C30.6407 34.0798 30.5221 33.7537 30.2998 33.5165C30.0774 33.2793 29.7513 33.1607 29.3214 33.1607C29.0694 33.1607 28.8174 33.2052 28.5654 33.2793C28.3134 33.3534 28.1058 33.472 27.9131 33.6203L27.2016 33.1311C27.4239 32.8643 27.7204 32.6567 28.0762 32.5085C28.432 32.3603 28.8322 32.2861 29.2769 32.2861C29.7661 32.2861 30.1812 32.3751 30.5221 32.5381C30.863 32.7012 31.1299 32.9532 31.3078 33.2793C31.4856 33.6054 31.5746 33.9909 31.5746 34.4504V38.2008H30.6259V34.5097H30.6407Z" fill="#75B5B0"/>
<path d="M33.9019 32.375H34.8802V38.2007H33.9019V32.375ZM34.5689 37.3261H36.7332C37.0297 37.3261 37.252 37.252 37.4003 37.1038C37.5485 36.9555 37.6226 36.748 37.6226 36.4812C37.6226 36.1699 37.5485 35.9475 37.4003 35.7993C37.252 35.6511 37.0297 35.5769 36.7332 35.5769H34.5689V34.7172H36.7332C36.9852 34.7172 37.1779 34.6579 37.3113 34.5393C37.4447 34.4207 37.504 34.2576 37.504 34.0204C37.504 33.7684 37.4447 33.5906 37.3113 33.4571C37.1779 33.3237 36.9852 33.2644 36.748 33.2644H34.5838V32.3898H36.7925C37.3558 32.3898 37.7709 32.5232 38.0673 32.7752C38.3638 33.0273 38.512 33.4127 38.512 33.9167C38.512 34.2576 38.4231 34.5393 38.2452 34.7468C38.0673 34.9543 37.8153 35.1026 37.4744 35.1619C37.845 35.236 38.1266 35.3991 38.3193 35.6659C38.5121 35.9327 38.6158 36.244 38.6158 36.6443C38.6158 37.1779 38.4528 37.5633 38.1415 37.8301C37.8302 38.097 37.3706 38.2304 36.7777 38.2304H34.5838V37.3558L34.5689 37.3261Z" fill="#75B5B0"/>
<path d="M40.6912 32.375H41.6695V38.2007H40.6912V32.375ZM41.2545 34.8209H43.3594V35.74H41.2545V34.8209ZM42.4997 34.9099L44.2192 32.375H45.3903L42.9889 35.7993L42.5145 34.9099H42.4997ZM42.5293 35.6511L43.315 35.147L45.7312 38.2007H44.4564L42.5441 35.6511H42.5293Z" fill="#75B5B0"/>
<path d="M47.4657 37.8302C47.0951 37.5189 46.9172 37.0742 46.9172 36.4813C46.9172 35.8883 47.0803 35.4881 47.4212 35.1916C47.7622 34.8951 48.2514 34.7469 48.8888 34.7469H50.6825L50.7566 35.577H48.8888C48.5478 35.577 48.2958 35.6511 48.118 35.7994C47.9401 35.9476 47.8511 36.17 47.8511 36.4664C47.8511 36.7777 47.9697 37.0149 48.1921 37.178C48.4144 37.341 48.7554 37.4152 49.1853 37.4152C49.6596 37.4152 50.0154 37.3707 50.2674 37.2669C50.5194 37.1632 50.638 37.0297 50.638 36.837L50.7566 37.6227C50.6528 37.7561 50.5046 37.8747 50.3415 37.9785C50.1785 38.0822 49.9858 38.1415 49.7782 38.186C49.5707 38.2305 49.3335 38.2601 49.0667 38.2601C48.37 38.2601 47.8363 38.1119 47.4657 37.8006V37.8302ZM50.638 34.5097C50.638 34.0798 50.5194 33.7537 50.2971 33.5165C50.0747 33.2793 49.7486 33.1607 49.3187 33.1607C49.0667 33.1607 48.8147 33.2052 48.5627 33.2793C48.3107 33.3534 48.1031 33.472 47.9104 33.6203L47.1989 33.1311C47.4212 32.8643 47.7177 32.6567 48.0735 32.5085C48.4293 32.3603 48.8295 32.2861 49.2742 32.2861C49.7634 32.2861 50.1785 32.3751 50.5194 32.5381C50.8604 32.7012 51.1272 32.9532 51.3051 33.2793C51.483 33.6054 51.5719 33.9909 51.5719 34.4504V38.2008H50.6232V34.5097H50.638Z" fill="#75B5B0"/>
<path d="M57.8275 37.8302C57.4569 37.5189 57.2791 37.0742 57.2791 36.4813C57.2791 35.8883 57.4421 35.4881 57.7831 35.1916C58.124 34.8951 58.6132 34.7469 59.2506 34.7469H61.0443L61.1184 35.577H59.2506C58.9097 35.577 58.6577 35.6511 58.4798 35.7994C58.3019 35.9476 58.2129 36.17 58.2129 36.4664C58.2129 36.7777 58.3315 37.0149 58.5539 37.178C58.7763 37.341 59.1172 37.4152 59.5471 37.4152C60.0214 37.4152 60.3772 37.3707 60.6292 37.2669C60.8812 37.1632 60.9998 37.0297 60.9998 36.837L61.1184 37.6227C61.0146 37.7561 60.8664 37.8747 60.7033 37.9785C60.5403 38.0822 60.3476 38.1415 60.14 38.186C59.9325 38.2305 59.6953 38.2601 59.4285 38.2601C58.7318 38.2601 58.1981 38.1119 57.8275 37.8006V37.8302ZM60.9998 34.5097C60.9998 34.0798 60.8812 33.7537 60.6589 33.5165C60.4365 33.2793 60.1104 33.1607 59.6805 33.1607C59.4285 33.1607 59.1765 33.2052 58.9245 33.2793C58.6725 33.3534 58.465 33.472 58.2722 33.6203L57.5607 33.1311C57.7831 32.8643 58.0795 32.6567 58.4353 32.5085C58.7911 32.3603 59.1913 32.2861 59.636 32.2861C60.1252 32.2861 60.5403 32.3751 60.8812 32.5381C61.2222 32.7012 61.489 32.9532 61.6669 33.2793C61.8448 33.6054 61.9337 33.9909 61.9337 34.4504V38.2008H60.985V34.5097H60.9998Z" fill="#75B5B0"/>
<path d="M64.261 32.375H65.2394V38.2007H64.261V32.375ZM64.9281 37.3261H67.0923C67.3888 37.3261 67.6112 37.252 67.7594 37.1038C67.9076 36.9555 67.9818 36.748 67.9818 36.4812C67.9818 36.1699 67.9076 35.9475 67.7594 35.7993C67.6112 35.6511 67.3888 35.5769 67.0923 35.5769H64.9281V34.7172H67.0923C67.3443 34.7172 67.537 34.6579 67.6705 34.5393C67.8039 34.4207 67.8632 34.2576 67.8632 34.0204C67.8632 33.7684 67.8039 33.5906 67.6705 33.4571C67.537 33.3237 67.3443 33.2644 67.1071 33.2644H64.9429V32.3898H67.1516C67.7149 32.3898 68.13 32.5232 68.4265 32.7752C68.7229 33.0273 68.8712 33.4127 68.8712 33.9167C68.8712 34.2576 68.7822 34.5393 68.6044 34.7468C68.4265 34.9543 68.1745 35.1026 67.8335 35.1619C68.2041 35.236 68.4858 35.3991 68.6785 35.6659C68.8712 35.9327 68.9749 36.244 68.9749 36.6443C68.9749 37.1779 68.8119 37.5633 68.5006 37.8301C68.1893 38.097 67.7298 38.2304 67.1368 38.2304H64.9429V37.3558L64.9281 37.3261Z" fill="#75B5B0"/>
<path d="M70.3833 32.375H74.9046V33.2644H70.3833V32.375ZM72.1622 32.8494H73.1405V38.2156H72.1622V32.8494Z" fill="#75B5B0"/>
<path d="M77.5432 37.9935C77.1874 37.8008 76.9058 37.5043 76.7131 37.1189C76.5203 36.7334 76.4314 36.2739 76.4314 35.7403V34.7915C76.4314 34.2579 76.5203 33.8132 76.7131 33.4277C76.9058 33.0423 77.1726 32.7607 77.5432 32.568C77.9138 32.3753 78.3288 32.2715 78.8477 32.2715C79.3665 32.2715 79.7816 32.3753 80.1522 32.568C80.5228 32.7607 80.7896 33.0572 80.9823 33.4277C81.175 33.7983 81.2639 34.2579 81.2639 34.7915V35.7551C81.2639 36.2887 81.175 36.7483 80.9823 37.1189C80.7896 37.4895 80.5228 37.7859 80.1522 37.9786C79.7816 38.1714 79.3665 38.2751 78.8477 38.2751C78.3288 38.2751 77.9138 38.1714 77.5432 37.9786V37.9935ZM79.9002 36.9558C80.1522 36.6742 80.2708 36.2887 80.2708 35.7699V34.8064C80.2708 34.3024 80.1522 33.9021 79.9002 33.6353C79.6482 33.3685 79.2924 33.2202 78.8477 33.2202C78.403 33.2202 78.0472 33.3536 77.7952 33.6353C77.5432 33.9169 77.4246 34.3024 77.4246 34.8064V35.7699C77.4246 36.2739 77.5432 36.6742 77.7952 36.9558C78.0472 37.2375 78.3881 37.3709 78.8477 37.3709C79.3072 37.3709 79.663 37.2375 79.9002 36.9558Z" fill="#75B5B0"/>
<path d="M83.4429 32.375H84.4212V38.2007H83.4429V32.375ZM84.0062 34.8209H86.1111V35.74H84.0062V34.8209ZM85.2514 34.9099L86.9709 32.375H88.142L85.7405 35.7993L85.2662 34.9099H85.2514ZM85.281 35.6511L86.0667 35.147L88.483 38.2007H87.2081L85.2958 35.6511H85.281Z" fill="#75B5B0"/>
<path d="M90.7214 37.9935C90.3656 37.8008 90.084 37.5043 89.8913 37.1189C89.6986 36.7334 89.6096 36.2739 89.6096 35.7403V34.7915C89.6096 34.2579 89.6986 33.8132 89.8913 33.4277C90.084 33.0423 90.3508 32.7607 90.7214 32.568C91.092 32.3753 91.5071 32.2715 92.0259 32.2715C92.5447 32.2715 92.9598 32.3753 93.3304 32.568C93.701 32.7607 93.9678 33.0572 94.1605 33.4277C94.3532 33.7983 94.4422 34.2579 94.4422 34.7915V35.7551C94.4422 36.2887 94.3532 36.7483 94.1605 37.1189C93.9678 37.4895 93.701 37.7859 93.3304 37.9786C92.9598 38.1714 92.5447 38.2751 92.0259 38.2751C91.5071 38.2751 91.092 38.1714 90.7214 37.9786V37.9935ZM93.0784 36.9558C93.3304 36.6742 93.449 36.2887 93.449 35.7699V34.8064C93.449 34.3024 93.3304 33.9021 93.0784 33.6353C92.8264 33.3685 92.4706 33.2202 92.0259 33.2202C91.5812 33.2202 91.2254 33.3536 90.9734 33.6353C90.7214 33.9169 90.6028 34.3024 90.6028 34.8064V35.7699C90.6028 36.2739 90.7214 36.6742 90.9734 36.9558C91.2254 37.2375 91.5664 37.3709 92.0259 37.3709C92.4854 37.3709 92.8412 37.2375 93.0784 36.9558Z" fill="#75B5B0"/>
<path d="M96.6213 32.375H97.5997V38.2007H96.6213V32.375ZM97.2291 34.895H101.039V35.7845H97.2291V34.895ZM100.476 32.375H101.454V38.2007H100.476V32.375Z" fill="#75B5B0"/>
<path d="M103.514 37.3112H108.955V38.2007H103.514V37.3112ZM103.514 37.3112H104.493V39.6682H103.514V37.3112ZM103.648 37.3112H103.781C104.018 37.3112 104.211 37.2223 104.33 37.0592C104.448 36.8962 104.537 36.659 104.582 36.3329C104.626 36.0068 104.641 35.5769 104.641 35.0284V32.3601H105.619V35.6955C105.619 36.3773 105.501 36.8962 105.278 37.2668C105.056 37.6374 104.715 37.8153 104.3 37.8153H104.167L103.663 37.3112H103.648ZM105.367 32.3749H108.273V33.2644H105.367V32.3749ZM107.71 32.3749H108.688V38.2007H107.71V32.3749ZM108.658 37.3112H109.637V39.6682H108.658V37.3112Z" fill="#75B5B0"/>
<path d="M115.477 38.2007V33.7833L115.61 33.9315L112.468 38.2007H111.638V32.375H112.601V36.8814L112.468 36.7332L115.625 32.375H116.441V38.2007H115.477Z" fill="#75B5B0"/>
<path d="M118.812 32.375H119.791V38.2007H118.812V32.375ZM119.524 37.3113H123.467V38.2007H119.524V37.3113ZM122.563 32.375H123.541V38.2007H122.563V32.375ZM123.467 37.3113H124.446V39.6683H123.467V37.3113Z" fill="#75B5B0"/>
<path d="M126.536 30.033H127.514V31.0113H126.536V30.033ZM126.536 32.3751H127.514V38.2008H126.536V32.3751Z" fill="#75B5B0"/>
<path d="M130.849 37.9935C130.494 37.8008 130.212 37.5043 130.019 37.1189C129.826 36.7334 129.738 36.2739 129.738 35.7403V34.7915C129.738 34.2579 129.826 33.8132 130.019 33.4277C130.212 33.0423 130.479 32.7607 130.849 32.568C131.22 32.3753 131.635 32.2715 132.154 32.2715C132.673 32.2715 133.088 32.3753 133.458 32.568C133.829 32.7607 134.096 33.0572 134.288 33.4277C134.481 33.7983 134.57 34.2579 134.57 34.7915V35.7551C134.57 36.2887 134.481 36.7483 134.288 37.1189C134.096 37.4895 133.829 37.7859 133.458 37.9786C133.088 38.1714 132.673 38.2751 132.154 38.2751C131.635 38.2751 131.22 38.1714 130.849 37.9786V37.9935ZM133.206 36.9558C133.458 36.6742 133.577 36.2887 133.577 35.7699V34.8064C133.577 34.3024 133.458 33.9021 133.206 33.6353C132.954 33.3685 132.599 33.2202 132.154 33.2202C131.709 33.2202 131.353 33.3536 131.101 33.6353C130.849 33.9169 130.731 34.3024 130.731 34.8064V35.7699C130.731 36.2739 130.849 36.6742 131.101 36.9558C131.353 37.2375 131.694 37.3709 132.154 37.3709C132.613 37.3709 132.969 37.2375 133.206 36.9558Z" fill="#75B5B0"/>
<path d="M136.764 32.375H137.743V38.2007H136.764V32.375ZM137.372 34.895H141.182V35.7845H137.372V34.895ZM140.618 32.375H141.597V38.2007H140.618V32.375Z" fill="#75B5B0"/>
<path d="M144.977 37.9785C144.591 37.7709 144.309 37.4744 144.102 37.089C143.894 36.7036 143.805 36.2293 143.805 35.6808V35.0285C143.805 34.4504 143.909 33.9612 144.102 33.5462C144.295 33.1311 144.576 32.8198 144.947 32.6123C145.317 32.4047 145.762 32.2861 146.266 32.2861C146.755 32.2861 147.17 32.4047 147.511 32.6271C147.852 32.8494 148.119 33.1756 148.297 33.6203C148.475 34.065 148.564 34.569 148.564 35.1768V35.6956H144.487V34.8803H147.645V34.8507C147.63 34.317 147.497 33.9167 147.259 33.6203C147.022 33.3238 146.681 33.1904 146.251 33.1904C145.762 33.1904 145.377 33.3386 145.11 33.6499C144.843 33.9612 144.71 34.3911 144.71 34.9544V35.6956C144.71 36.2293 144.858 36.6443 145.14 36.926C145.421 37.2076 145.821 37.3559 146.34 37.3559C146.592 37.3559 146.844 37.3114 147.081 37.2076C147.319 37.1039 147.541 36.9556 147.734 36.7777L148.386 37.4152C148.104 37.6968 147.778 37.9043 147.422 38.0526C147.067 38.2008 146.696 38.2749 146.325 38.2749C145.792 38.2749 145.332 38.1712 144.947 37.9636L144.977 37.9785Z" fill="#75B5B0"/>
<path d="M150.713 32.3753H151.692V40.5728H150.713V32.3753ZM152.255 38.0379C151.958 37.8749 151.751 37.6229 151.617 37.2819L151.692 36.0664C151.692 36.3184 151.751 36.5556 151.855 36.7483C151.958 36.941 152.107 37.1189 152.314 37.2375C152.522 37.356 152.744 37.4153 153.026 37.4153C153.456 37.4153 153.796 37.2819 154.034 37.0299C154.271 36.7779 154.389 36.4073 154.389 35.933V34.6729C154.389 34.1838 154.271 33.8132 154.034 33.5463C153.796 33.2795 153.456 33.1461 153.026 33.1461C152.759 33.1461 152.522 33.2054 152.314 33.324C152.107 33.4426 151.973 33.6056 151.855 33.7983C151.736 33.9911 151.692 34.2282 151.692 34.4654L151.573 33.3388C151.766 32.983 152.003 32.7162 152.314 32.5383C152.625 32.3604 152.981 32.2715 153.381 32.2715C153.782 32.2715 154.152 32.3604 154.434 32.5531C154.716 32.7458 154.953 33.0127 155.101 33.3685C155.249 33.7242 155.338 34.1541 155.338 34.6581V35.933C155.338 36.4221 155.264 36.852 155.101 37.2078C154.938 37.5636 154.716 37.8304 154.404 38.0083C154.093 38.1862 153.737 38.2899 153.307 38.2899C152.877 38.2899 152.536 38.201 152.24 38.0379H152.255Z" fill="#75B5B0"/>
<path d="M157.621 30.033H158.599V31.0113H157.621V30.033ZM157.621 32.3751H158.599V38.2008H157.621V32.3751Z" fill="#75B5B0"/>
<path d="M161.001 32.375H161.979V38.2007H161.001V32.375ZM161.668 37.3261H163.832C164.129 37.3261 164.351 37.252 164.499 37.1038C164.648 36.9555 164.722 36.748 164.722 36.4812C164.722 36.1699 164.648 35.9475 164.499 35.7993C164.351 35.6511 164.129 35.5769 163.832 35.5769H161.668V34.7172H163.832C164.084 34.7172 164.277 34.6579 164.41 34.5393C164.544 34.4207 164.603 34.2576 164.603 34.0204C164.603 33.7684 164.544 33.5906 164.41 33.4571C164.277 33.3237 164.084 33.2644 163.847 33.2644H161.683V32.3898H163.892C164.455 32.3898 164.87 32.5232 165.166 32.7752C165.463 33.0273 165.611 33.4127 165.611 33.9167C165.611 34.2576 165.522 34.5393 165.344 34.7468C165.166 34.9543 164.914 35.1026 164.574 35.1619C164.944 35.236 165.226 35.3991 165.418 35.6659C165.611 35.9327 165.715 36.244 165.715 36.6443C165.715 37.1779 165.552 37.5633 165.241 37.8301C164.929 38.097 164.47 38.2304 163.877 38.2304H161.683V37.3558L161.668 37.3261Z" fill="#75B5B0"/>
<path d="M7.39702 0.251953H10.347L17.7144 24.8446H14.5717L8.8794 4.03202L3.18707 24.8446H0.0444336L7.41185 0.251953H7.39702ZM3.80967 16.4692H14.2011V19.1523H3.80967V16.4692Z" fill="#151B26"/>
<path d="M17.1216 0.251953H20.1901L25.2598 20.5309L30.3296 0.251953H33.3981L26.7867 24.8446H23.7478L17.1364 0.251953H17.1216Z" fill="#151B26"/>
<path d="M35.5918 0.251953H50.2377V2.97953H35.5918V0.251953ZM41.462 2.01599H44.3526V24.8446H41.462V2.01599Z" fill="#151B26"/>
<path d="M55.604 24.1924C54.4922 23.5846 53.6472 22.71 53.0543 21.5686C52.4613 20.4272 52.1797 19.0634 52.1797 17.4921V7.61942C52.1797 6.0481 52.4762 4.68431 53.0543 3.52806C53.6324 2.37181 54.4922 1.51203 55.604 0.904251C56.7158 0.296476 58.0351 0 59.5471 0C61.0591 0 62.3785 0.296476 63.4902 0.904251C64.602 1.51203 65.447 2.38663 66.0399 3.52806C66.6329 4.66949 66.9145 6.03327 66.9145 7.61942V17.4921C66.9145 19.0634 66.618 20.4123 66.0399 21.5686C65.4618 22.7248 64.602 23.5994 63.4902 24.1924C62.3785 24.7853 61.0591 25.0966 59.5471 25.0966C58.0351 25.0966 56.7158 24.8002 55.604 24.1924ZM61.9486 21.7465C62.6156 21.3759 63.1345 20.8422 63.4902 20.1307C63.846 19.4191 64.0239 18.5742 64.0239 17.581V7.50083C64.0239 6.50764 63.846 5.66268 63.4902 4.95114C63.1345 4.2396 62.6156 3.70594 61.9486 3.33535C61.2815 2.96475 60.481 2.77204 59.5619 2.77204C58.6429 2.77204 57.8424 2.96475 57.1753 3.33535C56.5082 3.70594 55.9894 4.2396 55.6336 4.95114C55.2779 5.66268 55.0851 6.50764 55.0851 7.50083V17.581C55.0851 18.5742 55.263 19.4191 55.6336 20.1307C56.0042 20.8422 56.5082 21.3759 57.1753 21.7465C57.8424 22.1171 58.6429 22.3098 59.5619 22.3098C60.481 22.3098 61.2815 22.1171 61.9486 21.7465Z" fill="#151B26"/>
<path d="M73.8372 24.1628C72.7699 23.5402 71.9398 22.6508 71.3617 21.4945C70.7835 20.3383 70.4871 18.9597 70.4871 17.3735V7.7529C70.4871 6.16676 70.7835 4.78815 71.3617 3.6319C71.9398 2.47564 72.7699 1.57139 73.8372 0.948792C74.9045 0.326193 76.1646 0.0148926 77.6321 0.0148926C79.0997 0.0148926 80.2263 0.296544 81.2491 0.859847C82.272 1.42315 83.0724 2.23846 83.6802 3.32059C84.288 4.40273 84.6289 5.6924 84.7327 7.21925H81.8421C81.7383 6.28535 81.5011 5.48487 81.1305 4.83262C80.7599 4.18037 80.2708 3.66154 79.6778 3.32059C79.0849 2.97965 78.403 2.80176 77.6469 2.80176C76.7723 2.80176 76.0312 3.0093 75.3937 3.40954C74.7563 3.80978 74.2671 4.38791 73.9262 5.1291C73.5852 5.87028 73.4073 6.75971 73.4073 7.78255V17.4032C73.4073 18.4112 73.5852 19.3006 73.9262 20.0566C74.2671 20.8126 74.7711 21.376 75.3937 21.7762C76.0163 22.1764 76.7723 22.3691 77.6469 22.3691C78.4178 22.3691 79.0997 22.1913 79.6778 21.8503C80.2559 21.5094 80.7451 21.0054 81.1305 20.3383C81.5159 19.6712 81.7383 18.8707 81.8421 17.922H84.7327C84.6289 19.4489 84.2732 20.7385 83.6802 21.8207C83.0873 22.9028 82.272 23.7181 81.2491 24.2814C80.2263 24.8447 79.0256 25.1264 77.6618 25.1264C76.209 25.1264 74.949 24.8151 73.8669 24.1925L73.8372 24.1628Z" fill="#151B26"/>
<path d="M88.3496 0.251953H91.2402V24.8446H88.3496V0.251953ZM90.0692 22.117H101.35V24.8446H90.0692V22.117Z" fill="#151B26"/>
<path d="M107.739 24.8446H104.848V0.251953H107.739V24.8446Z" fill="#151B26"/>
<path d="M128.285 0.251953H131.042V24.8446H128.27V5.36616L128.493 6.44829L122.889 21.2869H120.829L115.225 6.78924L115.462 5.36616V24.8446H112.676V0.251953H115.448L121.851 17.0769L128.285 0.251953Z" fill="#151B26"/>
<path d="M141.048 0.251953H143.998L151.365 24.8446H148.223L142.531 4.03202L136.838 24.8446H133.696L141.063 0.251953H141.048ZM137.461 16.4692H147.852V19.1523H137.461V16.4692Z" fill="#151B26"/>
<path d="M151.099 0.251953H165.745V2.97953H151.099V0.251953ZM156.969 2.01599H159.859V24.8446H156.969V2.01599Z" fill="#151B26"/>
</svg>
